<?xml version="1.0" encoding="UTF-8"?>
<svg version="1.1" xmlns="http://www.w3.org/2000/svg" width="500" height="500">
<path d="M0 0 C1.98 0.495 1.98 0.495 4 1 C3.79431396 1.62640381 3.58862793 2.25280762 3.37670898 2.89819336 C-8.96480567 40.6207326 -18.83750615 78.77046599 -25 118 C-24.49662109 117.71801758 -23.99324219 117.43603516 -23.47460938 117.14550781 C-21.15077698 115.84514147 -18.82540094 114.54755914 -16.5 113.25 C-15.70851563 112.8065625 -14.91703125 112.363125 -14.1015625 111.90625 C-11.74144956 110.59077722 -9.3731705 109.29175083 -7 108 C-6.24976563 107.58556641 -5.49953125 107.17113281 -4.7265625 106.74414062 C-2.8578909 105.7499115 -0.93183402 104.86512567 1 104 C1.99 104.33 2.98 104.66 4 105 C3.01 106.98 3.01 106.98 2 109 C1.34 109 0.68 109 0 109 C-0.32291016 109.80244141 -0.32291016 109.80244141 -0.65234375 110.62109375 C-2.49256898 113.86949133 -4.99877068 116.38376967 -7.5625 119.0625 C-12.10733271 123.90115922 -16.44684083 128.82956591 -20.6015625 134.01171875 C-22.39045137 136.24054609 -24.19606241 138.44769621 -26.0234375 140.64453125 C-33.37981865 149.52414204 -40.18694168 158.66868086 -46.7265625 168.1640625 C-48.41013648 170.59130106 -50.14662878 172.97953814 -51.875 175.375 C-54.66870547 179.38423598 -57.06172462 183.51640696 -59.3359375 187.83984375 C-60.58259919 190.20733038 -61.85721744 192.54509216 -63.1640625 194.87890625 C-68.57021403 204.64165924 -72.5711676 214.39274105 -76 225 C-76.58264078 226.64607863 -77.16582118 228.29196658 -77.75 229.9375 C-80.6308152 238.80024322 -81.44802637 247.73265331 -82 257 C-81.65332275 256.51756836 -81.30664551 256.03513672 -80.94946289 255.53808594 C-74.7798733 246.95838886 -68.59132743 238.40105035 -62.2265625 229.96484375 C-53.80096093 218.74549008 -45.62375471 207.34131335 -37.41601562 195.96240234 C-32.63673446 189.33897786 -27.81590618 182.74755968 -22.96362305 176.17749023 C-12.24745083 161.75524699 -12.24745083 161.75524699 -2 147 C-1.01 147.33 -0.02 147.66 1 148 C0.76925781 148.97195312 0.53851563 149.94390625 0.30078125 150.9453125 C-0.40266795 153.91408797 -1.09917638 156.88442254 -1.79296875 159.85546875 C-2.59252409 163.27866755 -3.4100149 166.69692617 -4.23828125 170.11328125 C-6.64588624 180.18654357 -8.656517 190.26453743 -10.25 200.5 C-10.41306641 201.53697021 -10.57613281 202.57394043 -10.74414062 203.64233398 C-12.84306006 217.71067645 -13.18650857 231.67111539 -13.18530273 245.86621094 C-13.18748573 248.73127188 -13.20570258 251.59594437 -13.22460938 254.4609375 C-13.28457744 274.04193386 -11.91624485 294.31234843 -5.55078125 312.984375 C-5 315 -5 315 -5 319 C-11.61724572 318.3537583 -18.04113704 317.27521701 -24.5625 316 C-33.75742347 314.27132974 -42.64507959 313.23235763 -52 313 C-53.04929687 312.96003906 -54.09859375 312.92007812 -55.1796875 312.87890625 C-76.99135719 312.42560749 -100.70584531 314.01494224 -121.43359375 321.23046875 C-124 322 -124 322 -128 322 C-126.52895029 317.57041457 -124.08002211 314.27615436 -121.1875 310.6875 C-118.23665615 306.96031326 -115.43486477 303.28216748 -113 299.1875 C-112.34 298.135625 -111.68 297.08375 -111 296 C-110.34 296 -109.68 296 -109 296 C-108.76539063 295.30519531 -108.53078125 294.61039062 -108.2890625 293.89453125 C-106.75644702 290.45311285 -104.67175588 287.64098452 -102.375 284.6875 C-101.95476562 284.13771484 -101.53453125 283.58792969 -101.1015625 283.02148438 C-100.07279961 281.67707832 -99.0370991 280.33798587 -98 279 C-121.04004798 263.63996801 -171.76901004 271.37916917 -197.1875 276.3125 C-204.83752888 277.85498562 -211.8847351 279.61026267 -218.86328125 283.1796875 C-221.36503656 284.140142 -222.52512819 283.9174582 -225 283 C-223.43982103 279.39313465 -221.24234682 276.78799396 -218.625 273.875 C-217.46871094 272.57175781 -217.46871094 272.57175781 -216.2890625 271.2421875 C-214.22116203 269.21663312 -212.65278801 268.07807367 -210 267 C-210 266.34 -210 265.68 -210 265 C-209.34 265 -208.68 265 -208 265 C-208 264.34 -208 263.68 -208 263 C-206.7421875 261.73046875 -206.7421875 261.73046875 -204.875 260.1875 C-200.86007637 256.78369749 -197.01966609 253.23039839 -193.1875 249.625 C-188.05744348 244.81729397 -182.81879852 240.26837999 -177.3046875 235.90234375 C-174.94456515 234.02536415 -174.94456515 234.02536415 -172.8203125 231.75390625 C-171 230 -171 230 -169 230 C-169 229.34 -169 228.68 -169 228 C-167.53309441 226.6672812 -165.99677499 225.41086131 -164.4375 224.1875 C-159.66903492 220.37764388 -155.03085322 216.45639335 -150.4375 212.4375 C-133.85955669 198 -133.85955669 198 -131 198 C-131 197.34 -131 196.68 -131 196 C-129.1015625 194.2734375 -129.1015625 194.2734375 -126.625 192.375 C-125.81289062 191.74335938 -125.00078125 191.11171875 -124.1640625 190.4609375 C-122 189 -122 189 -120 189 C-120 188.34 -120 187.68 -120 187 C-118.70703125 185.84375 -118.70703125 185.84375 -116.8125 184.5 C-113.12465833 181.82323619 -109.48384074 179.09461968 -105.875 176.3125 C-105.31868896 175.88485352 -104.76237793 175.45720703 -104.18920898 175.01660156 C-101.3508031 172.83029999 -98.5247086 170.63016076 -95.71875 168.40234375 C-78.32078225 154.59158584 -60.22272155 141.69440075 -42 129 C-52.47692724 126.86001114 -62.72301754 126.69081521 -73.37573242 126.73925781 C-76.19276246 126.7500201 -79.00916059 126.73928591 -81.82617188 126.7265625 C-83.64843888 126.72788364 -85.4707055 126.7304451 -87.29296875 126.734375 C-88.11927292 126.73032654 -88.94557709 126.72627808 -89.79692078 126.72210693 C-94.96799828 126.76295123 -99.72250779 127.40882013 -104.76313782 128.57183838 C-107 129 -107 129 -111 129 C-109.64268597 126.00863801 -108.0881749 123.79405164 -105.875 121.375 C-102.27276242 117.3725138 -98.97441814 113.17880874 -95.69921875 108.90625 C-95.13847656 108.2771875 -94.57773437 107.648125 -94 107 C-93.34 107 -92.68 107 -92 107 C-91.77441406 106.45601563 -91.54882812 105.91203125 -91.31640625 105.3515625 C-89.58776213 102.26359881 -87.35449856 99.95545026 -84.9375 97.375 C-81.58466353 93.95790247 -81.58466353 93.95790247 -79 90 C-78.34 90 -77.68 90 -77 90 C-76.76410156 89.44441406 -76.52820313 88.88882813 -76.28515625 88.31640625 C-74.6872248 85.43624409 -72.694995 83.33630924 -70.4375 80.9375 C-64.80181568 74.84574874 -59.54910824 68.48399529 -54.3984375 61.9765625 C-53.30686235 60.61688117 -52.16059061 59.30126826 -51 58 C-50.34 58 -49.68 58 -49 58 C-48.64421875 57.18789062 -48.64421875 57.18789062 -48.28125 56.359375 C-46.65652243 53.36749863 -44.6498123 50.88840601 -42.5 48.25 C-41.7059375 47.26515625 -40.911875 46.2803125 -40.09375 45.265625 C-39.4028125 44.51796875 -38.711875 43.7703125 -38 43 C-37.34 43 -36.68 43 -36 43 C-35.77441406 42.45601562 -35.54882812 41.91203125 -35.31640625 41.3515625 C-33.58776213 38.26359881 -31.35449856 35.95545026 -28.9375 33.375 C-25.58466353 29.95790247 -25.58466353 29.95790247 -23 26 C-22.34 26 -21.68 26 -21 26 C-20.77441406 25.45601562 -20.54882812 24.91203125 -20.31640625 24.3515625 C-18.58776213 21.26359881 -16.35449856 18.95545026 -13.9375 16.375 C-10.58466353 12.95790247 -10.58466353 12.95790247 -8 9 C-7.34 9 -6.68 9 -6 9 C-5.62875 8.1646875 -5.62875 8.1646875 -5.25 7.3125 C-3.78393985 4.60028873 -1.97010529 2.36412635 0 0 Z " fill="#02B4E5" transform="translate(352,15)"/>
<path d="M0 0 C4.42682535 0.58548335 8.48740754 1.71639375 12.72216797 3.06982422 C37.20915255 10.86952242 59.41903845 11.14324462 84.80932617 7.63671875 C99.82720044 5.56402102 114.88719577 4.16393224 130 3 C130.88012756 2.9321228 131.76025513 2.86424561 132.66705322 2.79431152 C170.28259256 -0.07838403 207.07326263 -1.36644939 244.61547852 2.74029541 C247.14484807 3.01577579 249.67489123 3.28438162 252.20507812 3.55224609 C286.6639375 7.22131223 320.33466264 12.74300705 354 21 C354.93553711 21.22943298 355.87107422 21.45886597 356.83496094 21.69525146 C383.64706397 28.29482181 410.14284263 35.52840697 436.32421875 44.3203125 C437.34418945 44.66170509 437.34418945 44.66170509 438.38476562 45.00999451 C442.69939419 46.48150387 446.91257078 47.98460962 451 50 C451.33 50.99 451.66 51.98 452 53 C446.56871822 52.40098384 441.34006464 51.48690824 436.03125 50.1796875 C435.28634308 50.00034164 434.54143616 49.82099579 433.7739563 49.63621521 C432.17810503 49.25195241 430.5826653 48.86597706 428.98760986 48.47842407 C424.72120559 47.44351459 420.45047631 46.42679517 416.1796875 45.41015625 C415.3163681 45.20454575 414.45304871 44.99893524 413.56356812 44.78709412 C384.90967616 37.98085292 356.05381133 31.83413512 326.875 27.75 C325.79968018 27.59893799 324.72436035 27.44787598 323.61645508 27.29223633 C320.0812512 26.8212831 316.54384109 26.40108932 313 26 C312.24209167 25.9124646 311.48418335 25.8249292 310.70330811 25.73474121 C295.96414994 24.07529118 281.33836815 23.68731673 266.51318359 23.73925781 C262.87190185 23.75000915 259.23111099 23.7392754 255.58984375 23.7265625 C237.96719416 23.71536555 220.72769835 24.68400228 203.375 27.875 C202.5190625 28.02324219 201.663125 28.17148437 200.78125 28.32421875 C191.79382419 29.92632509 182.90208959 31.98612494 174 34 C174.58991226 33.99111755 175.17982452 33.98223511 175.78761292 33.9730835 C228.22846883 33.22137821 278.62163382 37.03364039 329.51757812 50.35351562 C331.40292119 50.84450583 333.28995 51.32902843 335.17773438 51.81054688 C338.72559712 52.71684832 342.2692631 53.63829301 345.8125 54.5625 C346.96500244 54.85552002 348.11750488 55.14854004 349.30493164 55.45043945 C350.38637451 55.7362085 351.46781738 56.02197754 352.58203125 56.31640625 C353.55374268 56.56849854 354.5254541 56.82059082 355.52661133 57.08032227 C358.06808975 58.02531775 359.28336308 58.93837572 361 61 C353.65040431 61.27618522 347.06225624 60.21542465 339.875 58.75 C264.25716838 44.11730999 184.75244091 43.48402279 108.32324219 51.03442383 C106.41526855 51.22234497 106.41526855 51.22234497 104.46875 51.4140625 C103.35951172 51.5270166 102.25027344 51.6399707 101.10742188 51.75634766 C98.05702879 51.99552838 95.05831196 52.04314774 92 52 C92 51.01 92 50.02 92 49 C96.62 47.68 101.24 46.36 106 45 C104.75347656 44.96261719 103.50695312 44.92523438 102.22265625 44.88671875 C69.14239538 43.69616952 41.48849121 34.32566081 14 16 C14 15.34 14 14.68 14 14 C13.28457031 13.75507813 12.56914062 13.51015625 11.83203125 13.2578125 C8.65416879 11.84640324 6.36353001 10.08718481 3.6875 7.875 C2.80449219 7.15054687 1.92148437 6.42609375 1.01171875 5.6796875 C0.34785156 5.12539063 -0.31601563 4.57109375 -1 4 C-0.67 2.68 -0.34 1.36 0 0 Z " fill="#0784BD" transform="translate(16,419)"/>
<path d="M0 0 C-1 3 -1 3 -2.61621094 3.94799805 C-3.31520508 4.21652588 -4.01419922 4.48505371 -4.734375 4.76171875 C-5.52400635 5.07149658 -6.3136377 5.38127441 -7.12719727 5.70043945 C-7.99272217 6.02616943 -8.85824707 6.35189941 -9.75 6.6875 C-10.65613037 7.03707764 -11.56226074 7.38665527 -12.49584961 7.74682617 C-14.39964387 8.47991432 -16.30520442 9.20843011 -18.21240234 9.93261719 C-20.74245801 10.9013861 -23.25739426 11.89994055 -25.76953125 12.9140625 C-65.65362421 28.84053124 -108.01110604 39.41704104 -150.5 45.25 C-151.67965332 45.41338867 -152.85930664 45.57677734 -154.07470703 45.74511719 C-170.2283624 47.84753549 -186.41669337 48.21027407 -202.6875 48.1875 C-203.5625116 48.18656342 -204.43752319 48.18562683 -205.33905029 48.18466187 C-251.09703232 48.07896479 -302.00250397 40.76671181 -343 19 C-342.505 17.515 -342.505 17.515 -342 16 C-341.04335449 16.14099121 -340.08670898 16.28198242 -339.10107422 16.42724609 C-335.4816535 16.96059517 -331.86217283 17.4935364 -328.24267578 18.02636719 C-326.6892745 18.25510064 -325.13588856 18.48393826 -323.58251953 18.71289062 C-319.80894561 19.26904761 -316.03512635 19.82339034 -312.26074219 20.37402344 C-309.67096506 20.75230225 -307.08384627 21.14124143 -304.49707031 21.54003906 C-287.13755196 24.16373438 -269.65286065 25.36132905 -252.125 26.125 C-251.18323914 26.16669312 -250.24147827 26.20838623 -249.2711792 26.25134277 C-202.53827364 28.27857597 -155.36047203 27.64233204 -109 21 C-108.16786987 20.88098328 -107.33573975 20.76196655 -106.47839355 20.63934326 C-71.93563719 15.66161877 -37.53892223 9.4770567 -3.8112793 0.42382812 C-2 0 -2 0 0 0 Z " fill="#0583BD" transform="translate(413,356)"/>
<path d="M0 0 C10.82455433 -0.85998884 20.45423368 1.71656929 30.8125 4.4375 C32.59670075 4.89638462 34.3810453 5.35471046 36.16552734 5.8125 C51.87717105 9.86967452 67.49618662 14.20560019 83 19 C83.68350525 19.21094299 84.3670105 19.42188599 85.07122803 19.63922119 C89.31811831 20.95327488 93.55651184 22.29110028 97.78631592 23.65917969 C99.12456824 24.09068413 100.46427829 24.51769649 101.80548096 24.93994141 C103.65255889 25.52413241 105.4925181 26.13068978 107.33203125 26.73828125 C108.38108643 27.07899658 109.4301416 27.41971191 110.51098633 27.77075195 C113.32279752 29.15941986 113.98779792 30.08661837 115 33 C109.56871822 32.40098384 104.34006464 31.48690824 99.03125 30.1796875 C98.28634308 30.00034164 97.54143616 29.82099579 96.7739563 29.63621521 C95.17810503 29.25195241 93.5826653 28.86597706 91.98760986 28.47842407 C87.72120559 27.44351459 83.45047631 26.42679517 79.1796875 25.41015625 C78.3163681 25.20454575 77.45304871 24.99893524 76.56356812 24.78709412 C40.9640139 16.33102982 5.2786101 9.71849939 -31 5 C-31 4.67 -31 4.34 -31 4 C-19.5318511 3.65823397 -8.38144957 4.71758315 3 6 C3 6.66 3 7.32 3 8 C4.98 7.67 6.96 7.34 9 7 C8.49743888 4.98567734 8.49743888 4.98567734 7 3 C3.45411499 1.70079254 3.45411499 1.70079254 0 1 C0 0.67 0 0.34 0 0 Z " fill="#218AB8" transform="translate(353,439)"/>
<path d="M0 0 C0.495 0.99 0.495 0.99 1 2 C-0.93681876 6.58720233 -3.38393587 11.69196793 -8 14 C-8.4640625 15.7325 -8.4640625 15.7325 -8.9375 17.5 C-9.288125 18.655 -9.63875 19.81 -10 21 C-10.99 21.33 -11.98 21.66 -13 22 C-14.20882096 24.00016466 -14.20882096 24.00016466 -15 26 C-15.66 26 -16.32 26 -17 26 C-17.185625 26.9590625 -17.185625 26.9590625 -17.375 27.9375 C-17.58125 28.618125 -17.7875 29.29875 -18 30 C-18.99 30.495 -18.99 30.495 -20 31 C-20.144375 31.639375 -20.28875 32.27875 -20.4375 32.9375 C-21 35 -21 35 -24 37 C-24.144375 37.78375 -24.28875 38.5675 -24.4375 39.375 C-25.14856653 42.69331048 -26.37157327 43.91271995 -29 46 C-29.99 46 -30.98 46 -32 46 C-32.226875 47.051875 -32.45375 48.10375 -32.6875 49.1875 C-33.80813883 53.19438849 -35.9932561 55.1435933 -39 58 C-40.19027984 60.59915538 -40.19027984 60.59915538 -41 63 C-41.66 63.66 -42.32 64.32 -43 65 C-43.99 65 -44.98 65 -46 65 C-46 66.32 -46 67.64 -46 69 C-46.66 69 -47.32 69 -48 69 C-48.226875 69.845625 -48.45375 70.69125 -48.6875 71.5625 C-50.4520957 76.18406017 -52.99266915 80.16270188 -56.66015625 83.51953125 C-58.33550788 85.03793161 -58.33550788 85.03793161 -58 88 C-62.34285714 92 -62.34285714 92 -65 92 C-65 93.65 -65 95.3 -65 97 C-66.485 97.495 -66.485 97.495 -68 98 C-69.68538601 99.99665314 -69.68538601 99.99665314 -71 102 C-71.99 101.67 -72.98 101.34 -74 101 C-74.08184423 98.02026385 -74.14089764 95.04283168 -74.1875 92.0625 C-74.22520508 90.81629883 -74.22520508 90.81629883 -74.26367188 89.54492188 C-74.33458663 83.46989155 -73.23026633 78.63058975 -71 73 C-70.68675781 72.13246094 -70.37351562 71.26492187 -70.05078125 70.37109375 C-69.80714844 69.73300781 -69.56351562 69.09492188 -69.3125 68.4375 C-68.879375 67.303125 -68.44625 66.16875 -68 65 C-67.34 65 -66.68 65 -66 65 C-66.19335938 65.92039062 -66.38671875 66.84078125 -66.5859375 67.7890625 C-69.77335699 82.28177468 -69.77335699 82.28177468 -71 97 C-70.65332275 96.51756836 -70.30664551 96.03513672 -69.94946289 95.53808594 C-63.7798733 86.95838886 -57.59132743 78.40105035 -51.2265625 69.96484375 C-42.80096093 58.74549008 -34.62375471 47.34131335 -26.41601562 35.96240234 C-17.71359796 23.9020518 -8.93604723 11.88859597 0 0 Z " fill="#3BB9D8" transform="translate(341,175)"/>
<path d="M0 0 C1.32 0.33 2.64 0.66 4 1 C3.77860352 1.68400879 3.55720703 2.36801758 3.32910156 3.07275391 C-2.62581151 21.44852428 -2.62581151 21.44852428 -8 40 C-8.33 40 -8.66 40 -9 40 C-9 36.37 -9 32.74 -9 29 C-8.34 29 -7.68 29 -7 29 C-6.77848451 27.20991533 -6.57317787 25.41781838 -6.375 23.625 C-6.25898438 22.62726562 -6.14296875 21.62953125 -6.0234375 20.6015625 C-6.01570313 19.74304688 -6.00796875 18.88453125 -6 18 C-6.66 17.34 -7.32 16.68 -8 16 C-8.37125 16.763125 -8.7425 17.52625 -9.125 18.3125 C-11 21 -11 21 -13.9375 22.25 C-17.91661008 24.52377719 -18.51141068 26.81929427 -19.9453125 31.0390625 C-21 33 -21 33 -23.06640625 33.64453125 C-23.70449219 33.76183594 -24.34257812 33.87914062 -25 34 C-25.268125 34.680625 -25.53625 35.36125 -25.8125 36.0625 C-27.57667734 40.42651764 -30.60637387 43.76509581 -34 47 C-35.485 47.495 -35.485 47.495 -37 48 C-37.268125 48.61875 -37.53625 49.2375 -37.8125 49.875 C-39.54023664 52.96673926 -41.77882955 53.72495336 -45 55 C-45.66 54.67 -46.32 54.34 -47 54 C-45.5489926 52.16086305 -44.08898341 50.3288247 -42.625 48.5 C-41.81289063 47.4790625 -41.00078125 46.458125 -40.1640625 45.40625 C-39.44992187 44.6121875 -38.73578125 43.818125 -38 43 C-37.34 43 -36.68 43 -36 43 C-35.77441406 42.45601562 -35.54882812 41.91203125 -35.31640625 41.3515625 C-33.58776213 38.26359881 -31.35449856 35.95545026 -28.9375 33.375 C-25.58466353 29.95790247 -25.58466353 29.95790247 -23 26 C-22.34 26 -21.68 26 -21 26 C-20.77441406 25.45601562 -20.54882812 24.91203125 -20.31640625 24.3515625 C-18.58776213 21.26359881 -16.35449856 18.95545026 -13.9375 16.375 C-10.58466353 12.95790247 -10.58466353 12.95790247 -8 9 C-7.34 9 -6.68 9 -6 9 C-5.7525 8.443125 -5.505 7.88625 -5.25 7.3125 C-3.78393985 4.60028873 -1.97010529 2.36412635 0 0 Z " fill="#12B0DA" transform="translate(352,15)"/>
<path d="M0 0 C0 0.33 0 0.66 0 1 C-16.94884104 4.58632033 -33.88342029 8.08028111 -51.0625 10.375 C-52.20477051 10.53000977 -53.34704102 10.68501953 -54.52392578 10.84472656 C-70.5227936 12.87025013 -86.57953512 13.20659807 -102.6875 13.1875 C-103.55918823 13.18722809 -104.43087646 13.18695618 -105.32897949 13.18667603 C-125.85612215 13.15734885 -145.74775782 11.32731252 -166 8 C-166 7.67 -166 7.34 -166 7 C-159.8466572 6.79714254 -153.97361008 6.91352329 -147.8984375 7.96875 C-138.21630281 9.4100082 -128.52268513 9.46203704 -118.75 9.625 C-116.89451586 9.66332437 -115.03904674 9.70238351 -113.18359375 9.7421875 C-107.78931217 9.85323057 -102.39497486 9.931933 -97 10 C-96.16471771 10.01226624 -95.32943542 10.02453247 -94.46884155 10.03717041 C-85.64325036 10.15771379 -77.04420585 10.08594012 -68.3125 8.625 C-59.50868854 7.28191204 -50.7338125 6.36941663 -41.85083008 5.73486328 C-36.82838148 5.35084949 -32.06267581 4.68898994 -27.16381836 3.51489258 C-23.6128005 2.66990819 -20.0286542 2.02372463 -16.4375 1.375 C-15.73431641 1.2409375 -15.03113281 1.106875 -14.30664062 0.96875 C-9.46685271 0.09607435 -4.91782948 -0.12170107 0 0 Z " fill="#3A91B7" transform="translate(313,391)"/>
<path d="M0 0 C-1 3 -1 3 -2.61621094 3.94799805 C-3.31520508 4.21652588 -4.01419922 4.48505371 -4.734375 4.76171875 C-5.52561768 5.07197998 -6.31686035 5.38224121 -7.13208008 5.7019043 C-7.99599365 6.02715088 -8.85990723 6.35239746 -9.75 6.6875 C-10.64162842 7.03272705 -11.53325684 7.3779541 -12.4519043 7.73364258 C-14.34080586 8.46296158 -16.23174196 9.1870296 -18.12451172 9.90625 C-20.91225528 10.96662452 -23.69308329 12.04341514 -26.47265625 13.125 C-34.47789068 16.22722851 -42.50778819 19.26439619 -50.625 22.0625 C-51.79289062 22.46597656 -52.96078125 22.86945313 -54.1640625 23.28515625 C-57 24 -57 24 -60 23 C-59.67 22.34 -59.34 21.68 -59 21 C-57.35 21 -55.7 21 -54 21 C-54.50603992 18.83125748 -54.99983813 17.00032373 -56 15 C-52.26660091 11.26660091 -48.26395725 10.49001584 -43.171875 9.4140625 C-42.50964935 9.27213974 -41.84742371 9.13021698 -41.16513062 8.98399353 C-39.75463308 8.68206235 -38.34363622 8.38245596 -36.93218994 8.08499146 C-33.29875582 7.31908716 -29.66885843 6.53684422 -26.0390625 5.75390625 C-25.33333099 5.60197311 -24.62759949 5.45003998 -23.90048218 5.29350281 C-17.41492367 3.88948902 -10.98747345 2.31429248 -4.5703125 0.62890625 C-2 0 -2 0 0 0 Z " fill="#2789B2" transform="translate(413,356)"/>
<path d="M0 0 C4.42682535 0.58548335 8.48740754 1.71639375 12.72216797 3.06982422 C34.64318714 10.05220023 55.96764471 11.8852667 78.78515625 8.4375 C81.58072241 8.05705843 84.18570114 7.91487943 87 8 C87 8.99 87 9.98 87 11 C68.49623766 13.33907605 48.71853575 15.2603565 30.3203125 11.33984375 C27.8449889 10.97729635 26.32517126 11.0989314 24 12 C22.75825204 13.9001177 22.75825204 13.9001177 22 16 C21.67 16.66 21.34 17.32 21 18 C20.690625 17.38125 20.38125 16.7625 20.0625 16.125 C17.72368421 13.715311 17.11840822 13.71083829 13.9375 13.25 C7.68346454 12.15965829 3.604199 8.13320578 -1 4 C-0.67 2.68 -0.34 1.36 0 0 Z " fill="#0781BB" transform="translate(16,419)"/>
<path d="M0 0 C-0.66 1.32 -1.32 2.64 -2 4 C-2.66 4 -3.32 4 -4 4 C-4.21527344 4.53496094 -4.43054688 5.06992188 -4.65234375 5.62109375 C-6.4925387 8.86943789 -8.99862789 11.3839461 -11.5625 14.0625 C-16.98805089 19.83339448 -22.04878345 25.81541588 -27 32 C-28.68271361 34.06645599 -30.37281991 36.12672195 -32.0625 38.1875 C-32.81660156 39.10917969 -33.57070313 40.03085938 -34.34765625 40.98046875 C-34.89292969 41.64691406 -35.43820312 42.31335938 -36 43 C-36.495 41.515 -36.495 41.515 -37 40 C-36.34 40 -35.68 40 -35 40 C-35 39.01 -35 38.02 -35 37 C-34.34 37 -33.68 37 -33 37 C-32.34 35.02 -31.68 33.04 -31 31 C-30.34 31 -29.68 31 -29 31 C-29 30.34 -29 29.68 -29 29 C-28.34 29 -27.68 29 -27 29 C-27 28.34 -27 27.68 -27 27 C-26.21625 26.2575 -25.4325 25.515 -24.625 24.75 C-21.85847277 21.85173338 -20.97988742 19.830469 -20 16 C-23.81756824 14.62567543 -27.07255329 15.32024961 -31 16 C-30.88623383 13.87436897 -30.75864369 11.7494739 -30.625 9.625 C-30.55539062 8.44164062 -30.48578125 7.25828125 -30.4140625 6.0390625 C-30 3 -30 3 -28 1 C-27.92872196 5.27668213 -27.90563821 8.86490287 -29 13 C-28.49662109 12.71801758 -27.99324219 12.43603516 -27.47460938 12.14550781 C-25.15077698 10.84514147 -22.82540094 9.54755914 -20.5 8.25 C-19.70851563 7.8065625 -18.91703125 7.363125 -18.1015625 6.90625 C-15.74144956 5.59077722 -13.3731705 4.29175083 -11 3 C-10.24976563 2.58556641 -9.49953125 2.17113281 -8.7265625 1.74414062 C-3.34976852 -1.11658951 -3.34976852 -1.11658951 0 0 Z " fill="#40B5D2" transform="translate(356,120)"/>
<path d="M0 0 C1.49660156 0.13631836 1.49660156 0.13631836 3.0234375 0.27539062 C5.39107382 0.4916651 7.75820583 0.71223156 10.125 0.9375 C10.125 1.2675 10.125 1.5975 10.125 1.9375 C1.26179107 2.04204637 -7.54765202 1.94466881 -16.3984375 1.4453125 C-28.70231542 0.81305263 -40.99456321 0.738972 -53.3125 0.75 C-54.46463989 0.75027191 -55.61677979 0.75054382 -56.80383301 0.75082397 C-85.17823122 0.78139246 -113.31831799 2.1827569 -141.55175781 4.97192383 C-142.82374023 5.09720459 -144.09572266 5.22248535 -145.40625 5.3515625 C-146.51548828 5.4645166 -147.62472656 5.5774707 -148.76757812 5.69384766 C-151.81797121 5.93302838 -154.81668804 5.98064774 -157.875 5.9375 C-157.875 4.9475 -157.875 3.9575 -157.875 2.9375 C-156.10725581 2.40627637 -154.33565917 1.88785927 -152.5625 1.375 C-151.57636719 1.08496094 -150.59023437 0.79492188 -149.57421875 0.49609375 C-146.875 -0.0625 -146.875 -0.0625 -143.875 0.9375 C-144.865 1.2675 -145.855 1.5975 -146.875 1.9375 C-146.875 2.5975 -146.875 3.2575 -146.875 3.9375 C-145.699375 3.47537109 -145.699375 3.47537109 -144.5 3.00390625 C-139.95807696 1.66775863 -135.58013244 1.26260045 -130.875 0.875 C-130.03710938 0.79701172 -129.19921875 0.71902344 -128.3359375 0.63867188 C-108.92511362 -1.05348208 -89.40512871 -1.30610285 -69.93457031 -1.62011719 C-67.2280851 -1.66400658 -64.52175156 -1.71261894 -61.81542969 -1.765625 C-41.12180289 -2.16962901 -20.61724084 -1.96562677 0 0 Z " fill="#4A95B4" transform="translate(265.875,465.0625)"/>
<path d="M0 0 C6.66724418 0.5106886 12.97110295 1.52378689 19.4453125 3.1796875 C20.30003143 3.39311798 21.15475037 3.60654846 22.03536987 3.82644653 C23.8260291 4.27527211 25.61583146 4.72752939 27.40478516 5.18310547 C30.12315359 5.87453036 32.84445768 6.55329149 35.56640625 7.23046875 C37.31789612 7.67112926 39.0692047 8.11251112 40.8203125 8.5546875 C41.62260284 8.75480438 42.42489319 8.95492126 43.25149536 9.16110229 C56.57455112 12.57455112 56.57455112 12.57455112 60 16 C52.65088064 16.27616732 46.06169325 15.21728984 38.875 13.75 C28.22158603 11.66568517 17.58031646 10.03296883 6.8125 8.6875 C6.118078 8.6006897 5.42365601 8.51387939 4.70819092 8.42443848 C0.8066898 7.93922847 -3.09602746 7.46488068 -7 7 C-7 6.67 -7 6.34 -7 6 C1.70044116 5.8117693 10.32685006 6.39739901 19 7 C19 6.34 19 5.68 19 5 C13.06 4.34 7.12 3.68 1 3 C0.67 2.01 0.34 1.02 0 0 Z " fill="#4A9ABC" transform="translate(317,464)"/>
<path d="M0 0 C8.05906892 1.30564583 15.73241574 3.64146238 23.46191406 6.20361328 C25.51948031 6.88141721 27.58350991 7.53642331 29.6484375 8.19140625 C30.96399365 8.62362671 32.27911546 9.05717194 33.59375 9.4921875 C34.77646484 9.87745605 35.95917969 10.26272461 37.17773438 10.65966797 C40 12 40 12 41.40039062 14.15673828 C41.59826172 14.76501465 41.79613281 15.37329102 42 16 C36.23950511 15.37618454 30.74176025 14.34420549 25.1171875 12.96875 C24.29928741 12.77277222 23.48138733 12.57679443 22.63870239 12.37487793 C20.04980198 11.7539893 17.46233117 11.12739279 14.875 10.5 C12.28034692 9.87340503 9.68540052 9.24809054 7.08987427 8.62512207 C5.48212447 8.23898432 3.87489421 7.85067471 2.26828003 7.45983887 C-1.80531643 6.47884691 -5.85319008 5.62847903 -10 5 C-10 4.67 -10 4.34 -10 4 C-9.04287109 3.81824219 -9.04287109 3.81824219 -8.06640625 3.6328125 C-7.24011719 3.46523438 -6.41382813 3.29765625 -5.5625 3.125 C-4.73878906 2.96257812 -3.91507812 2.80015625 -3.06640625 2.6328125 C-2.38449219 2.42398437 -1.70257813 2.21515625 -1 2 C-0.67 1.34 -0.34 0.68 0 0 Z " fill="#2B8BB6" transform="translate(426,456)"/>
<path d="M0 0 C5.7250852 -0.05001082 11.45003894 -0.08600408 17.17529297 -0.10986328 C19.1167218 -0.11982592 21.058136 -0.13340092 22.99951172 -0.15087891 C51.20368728 -0.39815636 51.20368728 -0.39815636 58 3 C57.75 4.875 57.75 4.875 57 7 C55.67532254 7.6837045 54.34136367 8.34964186 53 9 C52.731875 9.61875 52.46375 10.2375 52.1875 10.875 C50.63331425 13.6561745 48.50467175 14.60076358 45.7421875 16.05078125 C43.84383996 17.02428402 43.84383996 17.02428402 41.75 18.75 C40 20 40 20 37 20 C36.731875 20.61875 36.46375 21.2375 36.1875 21.875 C35 24 35 24 32 26 C28.8125 26.125 28.8125 26.125 26 26 C29.20827761 22.56255971 32.78775102 19.87014167 36.625 17.1875 C37.54563232 16.5370874 37.54563232 16.5370874 38.48486328 15.87353516 C40.3204123 14.57827538 42.15970686 13.28850755 44 12 C45.55460937 10.90751953 45.55460937 10.90751953 47.140625 9.79296875 C49.42424322 8.19117368 51.71116697 6.59432523 54 5 C42.59082043 2.73651665 31.27789514 2.56802245 19.6875 2.375 C17.77146842 2.33672802 15.85545235 2.2976713 13.93945312 2.2578125 C9.29309781 2.16283656 4.64666253 2.0784489 0 2 C0 1.34 0 0.68 0 0 Z " fill="#56BFD8" transform="translate(256,139)"/>
<path d="M0 0 C10.72860194 0.18852176 21.18565142 1.68686987 31.75 3.4375 C32.4221051 3.54677826 33.09421021 3.65605652 33.78668213 3.76864624 C35.72889806 4.08650913 37.66918089 4.41611442 39.609375 4.74609375 C40.74342773 4.93872803 41.87748047 5.1313623 43.04589844 5.32983398 C45.68085365 5.92759862 47.67270081 6.65992153 50 8 C43.84765625 8.87890625 43.84765625 8.87890625 42 9 C41.505 8.505 41.505 8.505 41 8 C38.28972509 7.71351121 35.57910392 7.55164579 32.859375 7.37890625 C29.94985605 6.99335524 27.6656633 6.20149422 25 5 C24.34 6.65 23.68 8.3 23 10 C25.31 10.66 27.62 11.32 30 12 C30 12.33 30 12.66 30 13 C23.23405981 13.11381955 16.71162938 12.88021369 10 12 C10.99 11.34 11.98 10.68 13 10 C10.03 9.505 10.03 9.505 7 9 C9.33214148 7.79371992 11.49642139 6.8345262 14 6 C14 5.34 14 4.68 14 4 C13.15695312 3.87882812 12.31390625 3.75765625 11.4453125 3.6328125 C10.34960938 3.46523438 9.25390625 3.29765625 8.125 3.125 C6.48917969 2.88136719 6.48917969 2.88136719 4.8203125 2.6328125 C2 2 2 2 0 0 Z " fill="#208BBE" transform="translate(267,456)"/>
<path d="M0 0 C0.85435638 -0.00167175 1.70871277 -0.00334351 2.58895874 -0.00506592 C15.07694865 -0.00652881 27.65972436 0.01519525 39.8125 3.25 C40.8025 4.24 40.8025 4.24 41.8125 5.25 C40.41677948 5.27736707 39.02089779 5.29655989 37.625 5.3125 C36.84769531 5.32410156 36.07039063 5.33570313 35.26953125 5.34765625 C32.8125 5.25 32.8125 5.25 30.484375 4.78125 C7.73611447 0.25820405 -19.35355584 2.43174355 -41.8828125 6.8828125 C-44.3521537 7.27623296 -46.69117453 7.31218604 -49.1875 7.25 C-35.2922661 -2.01348926 -16.03795622 0.01666523 0 0 Z " fill="#17AACF" transform="translate(200.1875,283.75)"/>
<path d="M0 0 C0.33 0 0.66 0 1 0 C1.18175781 1.03898437 1.36351562 2.07796875 1.55078125 3.1484375 C2.81904661 10.23575271 4.11975786 17.15128971 6.44921875 23.984375 C7 26 7 26 7 30 C0.38275428 29.3537583 -6.04113704 28.27521701 -12.5625 27 C-21.75506343 25.27177343 -30.64631805 24.22198598 -40 24 C-41.06089844 23.97164063 -42.12179687 23.94328125 -43.21484375 23.9140625 C-55.14576081 23.76944532 -67.08426559 24.47228314 -79 25 C-79 24.67 -79 24.34 -79 24 C-51.60509737 19.68462856 -24.22462464 21.69489691 3 26 C2.69163768 23.87439563 2.37818386 21.74952935 2.0625 19.625 C1.80146484 17.84996094 1.80146484 17.84996094 1.53515625 16.0390625 C1.16537214 13.09297619 1.16537214 13.09297619 0 11 C-0.07033769 9.12620395 -0.0843022 7.24998898 -0.0625 5.375 C-0.05347656 4.37210937 -0.04445313 3.36921875 -0.03515625 2.3359375 C-0.02355469 1.56507813 -0.01195312 0.79421875 0 0 Z " fill="#61C5DA" transform="translate(340,304)"/>
<path d="M0 0 C0.95664551 0.14099121 1.91329102 0.28198242 2.89892578 0.42724609 C6.5183465 0.96059517 10.13782717 1.4935364 13.75732422 2.02636719 C15.3107255 2.25510064 16.86411144 2.48393826 18.41748047 2.71289062 C22.9036159 3.37406637 27.39010835 4.03273196 31.87701416 4.68865967 C33.9064727 4.98628402 35.93543316 5.28712454 37.96435547 5.58837891 C43.93599572 6.46377342 49.8503275 7.2561425 55.875 7.625 C57.04804688 7.69976562 58.22109375 7.77453125 59.4296875 7.8515625 C60.70199219 7.92503906 60.70199219 7.92503906 62 8 C62 8.33 62 8.66 62 9 C58.35423608 9.05878077 54.70859648 9.0938558 51.0625 9.125 C50.04091797 9.14175781 49.01933594 9.15851563 47.96679688 9.17578125 C42.3808863 9.21147397 37.40646772 8.82732815 31.99438477 7.44970703 C29.12435872 6.80255463 26.36900867 6.807609 23.4375 6.875 C22.40496094 6.89304687 21.37242188 6.91109375 20.30859375 6.9296875 C19.16583984 6.96449219 19.16583984 6.96449219 18 7 C21.38727672 9.12345246 24.01875869 10.43125124 28 11 C28 10.34 28 9.68 28 9 C28.66 9 29.32 9 30 9 C30.33 10.32 30.66 11.64 31 13 C26.86513265 14.17052716 24.57640824 13.8021013 20.62109375 12.19921875 C19.61755859 11.79896484 18.61402344 11.39871094 17.58007812 10.98632812 C16.02450195 10.3434082 16.02450195 10.3434082 14.4375 9.6875 C13.39658203 9.27048828 12.35566406 8.85347656 11.28320312 8.42382812 C7.11476337 6.74304888 2.99663345 5.06163031 -1 3 C-0.67 2.01 -0.34 1.02 0 0 Z " fill="#2D8AB0" transform="translate(71,372)"/>
<path d="M0 0 C1.23027799 3.69083396 0.66245285 5.53713924 -0.14453125 9.328125 C-0.40943359 10.60429687 -0.67433594 11.88046875 -0.94726562 13.1953125 C-1.2349849 14.54702252 -1.52339858 15.89858492 -1.8125 17.25 C-5.92464085 36.57922249 -8.18801245 55.60205448 -8.09765625 75.3984375 C-8.0962413 76.59941071 -8.09482635 77.80038391 -8.09336853 79.03775024 C-8.08783852 82.81686049 -8.07529984 86.59590813 -8.0625 90.375 C-8.05747593 92.96093664 -8.05291463 95.54687421 -8.04882812 98.1328125 C-8.03789216 104.42189581 -8.02122567 110.71094343 -8 117 C-8.66 117 -9.32 117 -10 117 C-10.78562025 51.85008053 -10.78562025 51.85008053 -8.125 30.75 C-8.03786743 30.04942474 -7.95073486 29.34884949 -7.86096191 28.62704468 C-7.10607801 22.76123846 -6.27934462 17.46915046 -4 12 C-3.55450643 9.3383813 -3.55450643 9.3383813 -3.375 6.6875 C-3.30023438 5.80449219 -3.22546875 4.92148438 -3.1484375 4.01171875 C-3.09945313 3.34785156 -3.05046875 2.68398437 -3 2 C-2.01 2 -1.02 2 0 2 C0 1.34 0 0.68 0 0 Z " fill="#51BCD2" transform="translate(347,180)"/>
<path d="M0 0 C18.22916667 -0.65625 18.22916667 -0.65625 25 3 C25.33 3.99 25.66 4.98 26 6 C16.33834154 9.86466338 7.7764827 7.30681052 -2 5 C-2 4.34 -2 3.68 -2 3 C-1.34 3 -0.68 3 0 3 C0 2.01 0 1.02 0 0 Z " fill="#2E8EB6" transform="translate(401,452)"/>
<path d="M0 0 C1.45792969 0.2165625 1.45792969 0.2165625 2.9453125 0.4375 C19.24092802 2.69514475 35.50449172 2.89753745 51.78515625 0.4375 C54.58072241 0.05705843 57.18570114 -0.08512057 60 0 C60 0.99 60 1.98 60 3 C40.41581726 5.4756529 19.16371356 7.85364342 0 2 C0 1.34 0 0.68 0 0 Z " fill="#4195BA" transform="translate(43,427)"/>
<path d="M0 0 C-1.38006449 3.92895911 -3.21510159 6.83356214 -5.75 10.125 C-9.74678707 15.52102133 -12.91470997 21.04927434 -16 27 C-16.76517965 28.43322597 -17.53224711 29.865445 -18.30078125 31.296875 C-19.11744946 32.82277649 -19.93385567 34.34881824 -20.75 35.875 C-21.13921631 36.60090332 -21.52843262 37.32680664 -21.92944336 38.07470703 C-23.83054268 41.65593454 -25.59444356 45.18705434 -27 49 C-28.03311995 45.8587569 -27.99963588 44.1755817 -26.75 41.125 C-26.46769531 40.4340625 -26.18539063 39.743125 -25.89453125 39.03125 C-22.63917526 31.63917526 -22.63917526 31.63917526 -20 29 C-19.28591666 27.01643517 -18.61382258 25.01684563 -18 23 C-17.34 23 -16.68 23 -16 23 C-16 22.34 -16 21.68 -16 21 C-15.34 21 -14.68 21 -14 21 C-14 19.35 -14 17.7 -14 16 C-13.34 16 -12.68 16 -12 16 C-11.67 14.68 -11.34 13.36 -11 12 C-10.34 12 -9.68 12 -9 12 C-9 11.01 -9 10.02 -9 9 C-8.34 9 -7.68 9 -7 9 C-6.9175 8.071875 -6.835 7.14375 -6.75 6.1875 C-6 3 -6 3 -4.0625 1.125 C-2 0 -2 0 0 0 Z " fill="#4EBCD4" transform="translate(307,179)"/>
<path d="M0 0 C-0.99 0.33 -1.98 0.66 -3 1 C-3 1.66 -3 2.32 -3 3 C-2.236875 2.690625 -1.47375 2.38125 -0.6875 2.0625 C9.10482969 -0.75901872 19.58802765 -0.12655074 29.6875 -0.0625 C31.08268067 -0.05747028 32.47786311 -0.05291 33.87304688 -0.04882812 C37.24874437 -0.03714751 40.62434826 -0.02076833 44 0 C44 0.33 44 0.66 44 1 C43.27748047 1.0501123 42.55496094 1.10022461 41.81054688 1.15185547 C27.7454984 2.13143323 13.68670663 3.14161645 -0.35742188 4.39013672 C-4.92195943 4.78701831 -9.41228646 5.10740466 -14 5 C-14 4.01 -14 3.02 -14 2 C-12.23225581 1.46877637 -10.46065917 0.95035927 -8.6875 0.4375 C-7.70136719 0.14746094 -6.71523437 -0.14257812 -5.69921875 -0.44140625 C-3 -1 -3 -1 0 0 Z " fill="#62A8C3" transform="translate(122,466)"/>
<path d="M0 0 C0.33 0.66 0.66 1.32 1 2 C-0.93681876 6.58720233 -3.38393587 11.69196793 -8 14 C-8.309375 15.155 -8.61875 16.31 -8.9375 17.5 C-9.4634375 19.2325 -9.4634375 19.2325 -10 21 C-10.99 21.33 -11.98 21.66 -13 22 C-14.20882096 24.00016466 -14.20882096 24.00016466 -15 26 C-15.66 26 -16.32 26 -17 26 C-17.12375 26.639375 -17.2475 27.27875 -17.375 27.9375 C-17.58125 28.618125 -17.7875 29.29875 -18 30 C-18.66 30.33 -19.32 30.66 -20 31 C-20.1546875 31.86625 -20.1546875 31.86625 -20.3125 32.75 C-21.32457005 36.06222926 -23.49289187 37.66780639 -26 40 C-26.763125 40.763125 -27.52625 41.52625 -28.3125 42.3125 C-28.869375 42.869375 -29.42625 43.42625 -30 44 C-30 39.74438244 -27.6083559 37.43810168 -25.125 34.1875 C-24.10851974 32.8313698 -23.09291365 31.47458399 -22.078125 30.1171875 C-21.56185547 29.42979492 -21.04558594 28.74240234 -20.51367188 28.03417969 C-18.25191721 24.99467326 -16.06289977 21.90536308 -13.875 18.8125 C-9.36139337 12.45610794 -4.71020768 6.21201302 0 0 Z " fill="#51BCD0" transform="translate(341,175)"/>
<path d="M0 0 C-4.11939433 2.74626289 -8.52559275 4.33211811 -13.125 6.125 C-14.03765625 6.49753906 -14.9503125 6.87007813 -15.890625 7.25390625 C-21.8898834 9.58695118 -26.56697111 10.40781983 -33 10 C-32.67 8.35 -32.34 6.7 -32 5 C-26.74631862 3.32329318 -21.53814367 2.15449757 -16 2 C-15.67 2.33 -15.34 2.66 -15 3 C-14.41992188 2.7834375 -13.83984375 2.566875 -13.2421875 2.34375 C-8.67446113 0.71564951 -4.9219536 -0.37861182 0 0 Z " fill="#4092B7" transform="translate(395,365)"/>
<path d="M0 0 C0.33 0 0.66 0 1 0 C1 2.97 1 5.94 1 9 C-4.75 11 -4.75 11 -7 11 C-7.0825 11.598125 -7.165 12.19625 -7.25 12.8125 C-8.20939363 15.61073143 -9.64049521 16.30410593 -12 18 C-12.33 18.99 -12.66 19.98 -13 21 C-13.66 21 -14.32 21 -15 21 C-15 21.66 -15 22.32 -15 23 C-15.66 23 -16.32 23 -17 23 C-17.33 23.99 -17.66 24.98 -18 26 C-19.62890625 27.60546875 -19.62890625 27.60546875 -21.5625 29.1875 C-22.20316406 29.71730469 -22.84382812 30.24710938 -23.50390625 30.79296875 C-23.99761719 31.19128906 -24.49132812 31.58960938 -25 32 C-25.66 31.67 -26.32 31.34 -27 31 C-25.5489926 29.16086305 -24.08898341 27.3288247 -22.625 25.5 C-21.81289062 24.4790625 -21.00078125 23.458125 -20.1640625 22.40625 C-19.44992187 21.6121875 -18.73578125 20.818125 -18 20 C-17.34 20 -16.68 20 -16 20 C-15.77441406 19.45601562 -15.54882812 18.91203125 -15.31640625 18.3515625 C-13.58776213 15.26359881 -11.35449856 12.95545026 -8.9375 10.375 C-5.58466353 6.95790247 -5.58466353 6.95790247 -3 3 C-2.34 3 -1.68 3 -1 3 C-0.67 2.01 -0.34 1.02 0 0 Z " fill="#32B2CD" transform="translate(276,102)"/>
<path d="M0 0 C0.33 0.99 0.66 1.98 1 3 C-0.72494038 5.61935391 -2.08840843 7.56243605 -4.953125 8.9375 C-7.27411725 10.14228987 -8.42886301 11.41179013 -10.0625 13.4375 C-11.96991667 15.78003029 -13.84792469 17.84792469 -16 20 C-12.7 19.67 -9.4 19.34 -6 19 C-8.47126394 20.64750929 -10.7609443 21.93723705 -13.4375 23.1875 C-14.19933594 23.55230469 -14.96117187 23.91710937 -15.74609375 24.29296875 C-18.28988738 25.09093521 -19.52455813 24.8852947 -22 24 C-20.43982103 20.39313465 -18.24234682 17.78799396 -15.625 14.875 C-14.85414063 14.00617188 -14.08328125 13.13734375 -13.2890625 12.2421875 C-11.22116203 10.21663312 -9.65278801 9.07807367 -7 8 C-7 7.34 -7 6.68 -7 6 C-6.34 6 -5.68 6 -5 6 C-5 5.34 -5 4.68 -5 4 C-3.37373596 2.61767557 -1.7074998 1.28062485 0 0 Z " fill="#4DBED9" transform="translate(149,274)"/>
<path d="M0 0 C5.6515188 0.74164449 10.94499402 2.39321856 16.375 4.0625 C17.30183594 4.34416016 18.22867188 4.62582031 19.18359375 4.91601562 C21.45676934 5.60734222 23.72883938 6.30208795 26 7 C25.01 7.33 24.02 7.66 23 8 C22.67 8.66 22.34 9.32 22 10 C21.195625 9.54625 20.39125 9.0925 19.5625 8.625 C15.43327617 6.7414944 11.43827566 5.83834096 7 5 C7 5.66 7 6.32 7 7 C7.99 7 8.98 7 10 7 C10 8.32 10 9.64 10 11 C10.66 11 11.32 11 12 11 C11.67 11.66 11.34 12.32 11 13 C7.04 10.03 3.08 7.06 -1 4 C-0.67 2.68 -0.34 1.36 0 0 Z " fill="#3995B7" transform="translate(16,419)"/>
<path d="M0 0 C0 0.66 0 1.32 0 2 C-0.91523438 2.06058594 -1.83046875 2.12117188 -2.7734375 2.18359375 C-3.96195312 2.26738281 -5.15046875 2.35117187 -6.375 2.4375 C-7.55835938 2.51871094 -8.74171875 2.59992188 -9.9609375 2.68359375 C-12.91518901 2.81084936 -12.91518901 2.81084936 -15 4 C-17.63226712 4.25202558 -20.23553358 4.4324494 -22.875 4.5625 C-23.71256836 4.6049585 -24.55013672 4.64741699 -25.41308594 4.69116211 C-40.59073895 5.34573461 -55.81201755 5.0806815 -71 5 C-71 4.67 -71 4.34 -71 4 C-69.71125977 3.9498877 -68.42251953 3.89977539 -67.09472656 3.84814453 C-62.21133378 3.6566288 -57.32829401 3.45707902 -52.4453125 3.25537109 C-50.35099673 3.16992147 -48.25659641 3.08651425 -46.16210938 3.00537109 C-34.50403046 2.55224998 -22.91612108 1.94314904 -11.31695557 0.65408325 C-7.52041254 0.23242935 -3.8284801 -0.11406839 0 0 Z " fill="#5CA2BD" transform="translate(294,379)"/>
<path d="M0 0 C10.72860194 0.18852176 21.18565142 1.68686987 31.75 3.4375 C32.4221051 3.54677826 33.09421021 3.65605652 33.78668213 3.76864624 C35.72889806 4.08650913 37.66918089 4.41611442 39.609375 4.74609375 C40.74342773 4.93872803 41.87748047 5.1313623 43.04589844 5.32983398 C45.68085365 5.92759862 47.67270081 6.65992153 50 8 C43.84765625 8.87890625 43.84765625 8.87890625 42 9 C41.505 8.505 41.505 8.505 41 8 C39.27460337 7.81482115 37.54402373 7.67700022 35.8125 7.5625 C31.54923233 7.2163842 28.03767226 6.4356168 24 5 C22.60841129 4.7832333 21.21178642 4.59720117 19.8125 4.4375 C16 4 16 4 13 3 C10.16745739 2.73484371 7.33540184 2.55612734 4.49609375 2.37890625 C2 2 2 2 0 0 Z " fill="#499ABB" transform="translate(267,456)"/>
<path d="M0 0 C8.24234326 -0.18159385 16.26472565 -0.25871362 24.4375 1 C32.97283552 2.3060535 41.39231027 2.17747814 50 2 C46.90568162 5.09431838 43.72307221 4.98025886 39.44287109 5.02929688 C36.3546076 4.98145713 33.27350152 4.87751307 30.1875 4.75 C29.08414307 4.70625244 27.98078613 4.66250488 26.84399414 4.61743164 C17.71062901 4.1813717 8.92322917 2.95157282 0 1 C0 0.67 0 0.34 0 0 Z " fill="#59ACCB" transform="translate(85,459)"/>
<path d="M0 0 C-0.41611941 4.8547265 -2.45891952 6.80439079 -6 10 C-6.66 10.66 -7.32 11.32 -8 12 C-8.61875 12.12375 -9.2375 12.2475 -9.875 12.375 C-12.76995054 13.22645604 -14.06317066 14.72923456 -16 17 C-16.33 17.99 -16.66 18.98 -17 20 C-18.65 20 -20.3 20 -22 20 C-22.33 20.99 -22.66 21.98 -23 23 C-23.99 22.67 -24.98 22.34 -26 22 C-21.8662699 17.75000874 -17.6216317 13.70804286 -13.125 9.84375 C-11.58690279 8.50922448 -10.06839945 7.15200463 -8.5625 5.78125 C-7.758125 5.0490625 -6.95375 4.316875 -6.125 3.5625 C-5.38507813 2.88316406 -4.64515625 2.20382813 -3.8828125 1.50390625 C-2 0 -2 0 0 0 Z " fill="#24B6D6" transform="translate(176,251)"/>
<path d="M0 0 C1.32 0.33 2.64 0.66 4 1 C4 1.66 4 2.32 4 3 C4.6290625 2.97679687 5.258125 2.95359375 5.90625 2.9296875 C11.6450776 2.80868812 16.55107852 3.11764531 22 5 C22.33 5.99 22.66 6.98 23 8 C12.66006789 7.41165035 2.32831031 6.76930362 -8 6 C-8 5.67 -8 5.34 -8 5 C-5.69 5 -3.38 5 -1 5 C-0.67 3.35 -0.34 1.7 0 0 Z " fill="#0A7FB5" transform="translate(314,464)"/>
<path d="M0 0 C16.5 0.66 33 1.32 50 2 C50 2.33 50 2.66 50 3 C43.12005431 4.10140934 36.35069576 4.22123784 29.40429688 4.24023438 C27.26913073 4.24991328 25.13494011 4.28098797 23 4.3125 C14.93930337 4.37295874 7.67587861 3.70841273 0 1 C0 0.67 0 0.34 0 0 Z " fill="#499BBC" transform="translate(134,381)"/>
<path d="M0 0 C-0.66 1.32 -1.32 2.64 -2 4 C-2.66 4 -3.32 4 -4 4 C-4.226875 4.61875 -4.45375 5.2375 -4.6875 5.875 C-6.39877291 8.64563234 -7.90815414 9.14974239 -11 10 C-11.66 9.67 -12.32 9.34 -13 9 C-14.32 9 -15.64 9 -17 9 C-17 9.66 -17 10.32 -17 11 C-18.98 11 -20.96 11 -23 11 C-19.54580186 7.00467421 -15.59334843 4.97980341 -10.9375 2.6875 C-10.21755859 2.31560547 -9.49761719 1.94371094 -8.75585938 1.56054688 C-3.37186105 -1.12395368 -3.37186105 -1.12395368 0 0 Z " fill="#3AB9D8" transform="translate(356,120)"/>
<path d="M0 0 C5.23117701 1.0462354 10.33509845 2.31165863 15.4375 3.875 C16.44683594 4.18179687 17.45617187 4.48859375 18.49609375 4.8046875 C21 6 21 6 22.34765625 8.1328125 C22.56292969 8.74898438 22.77820313 9.36515625 23 10 C17.05349367 9.35215814 11.32612517 8.28016565 5.5 6.9375 C4.67757813 6.75123047 3.85515625 6.56496094 3.0078125 6.37304688 C1.0044283 5.91879115 -0.9979003 5.45988401 -3 5 C-3 4.67 -3 4.34 -3 4 C-1.02 4 0.96 4 3 4 C3 3.34 3 2.68 3 2 C2.01 2 1.02 2 0 2 C0 1.34 0 0.68 0 0 Z " fill="#549AB8" transform="translate(445,462)"/>
<path d="M0 0 C11.4681489 -0.34176603 22.61855043 0.71758315 34 2 C34 2.66 34 3.32 34 4 C34.75925781 3.96519531 35.51851563 3.93039062 36.30078125 3.89453125 C37.79158203 3.85392578 37.79158203 3.85392578 39.3125 3.8125 C40.29863281 3.77769531 41.28476562 3.74289062 42.30078125 3.70703125 C45 4 45 4 46.85546875 5.51171875 C47.23316406 6.00285156 47.61085938 6.49398438 48 7 C42.98338396 7.13558422 38.48147374 6.65346161 33.5625 5.6875 C22.44954141 3.58834327 11.22685804 2.32272491 0 1 C0 0.67 0 0.34 0 0 Z " fill="#328DB0" transform="translate(322,443)"/>
<path d="M0 0 C0.33 0.99 0.66 1.98 1 3 C0.31292969 3.60328125 -0.37414062 4.2065625 -1.08203125 4.828125 C-1.98308594 5.62734375 -2.88414062 6.4265625 -3.8125 7.25 C-4.70582031 8.03890625 -5.59914063 8.8278125 -6.51953125 9.640625 C-9.00929578 11.85193256 -9.00929578 11.85193256 -10.59375 14.28125 C-11.0578125 14.8484375 -11.521875 15.415625 -12 16 C-15.6875 16.25 -15.6875 16.25 -19 16 C-19.33 16.99 -19.66 17.98 -20 19 C-21.65 19.33 -23.3 19.66 -25 20 C-21.26585873 16.11056363 -17.31904854 12.74102153 -13.0625 9.4375 C-12.17014648 8.73463867 -12.17014648 8.73463867 -11.25976562 8.01757812 C-7.60943292 5.16513235 -3.88625016 2.5216127 0 0 Z " fill="#2EB7DA" transform="translate(273,171)"/>
<path d="M0 0 C0.33 0 0.66 0 1 0 C1.14285714 8.57142857 1.14285714 8.57142857 0 12 C0.495 11.67 0.99 11.34 1.5 11 C5.09090894 9.56363642 8.14456127 9.87148538 12 10 C12 11.98 12 13.96 12 16 C9 16 9 16 7.25 14.9375 C3.98603271 13.57751363 1.40201272 14.34576678 -2 15 C-1.85930804 12.87465341 -1.71229079 10.74972471 -1.5625 8.625 C-1.48128906 7.44164062 -1.40007812 6.25828125 -1.31640625 5.0390625 C-1 2 -1 2 0 0 Z M12 8 C13.32 8 14.64 8 16 8 C16 9.32 16 10.64 16 12 C15.01 12 14.02 12 13 12 C12.67 10.68 12.34 9.36 12 8 Z " fill="#08B2E1" transform="translate(327,121)"/>
<path d="M0 0 C3.63 0.33 7.26 0.66 11 1 C11 1.66 11 2.32 11 3 C12.093125 3.12375 13.18625 3.2475 14.3125 3.375 C18 4 18 4 21 6 C14.6245243 9.18773785 5.54038883 6.71551182 -1 5 C-0.67 3.35 -0.34 1.7 0 0 Z " fill="#0880B9" transform="translate(379,446)"/>
<path d="M0 0 C1.32 0.33 2.64 0.66 4 1 C3.34 2.32 2.68 3.64 2 5 C4.97 5.33 7.94 5.66 11 6 C11 6.33 11 6.66 11 7 C10.04746338 7.08302368 10.04746338 7.08302368 9.07568359 7.16772461 C6.17523849 7.42190369 3.27512281 7.67967067 0.375 7.9375 C-0.62402344 8.02451172 -1.62304688 8.11152344 -2.65234375 8.20117188 C-7.47482126 8.63232053 -12.23730947 9.09785214 -17 10 C-17 8 -17 8 -15.91796875 6.44921875 C-13.18010266 4.38048491 -10.68992001 4.24721743 -7.3125 3.8125 C-6.13300781 3.65394531 -4.95351562 3.49539063 -3.73828125 3.33203125 C-2.38283203 3.16767578 -2.38283203 3.16767578 -1 3 C-0.67 2.01 -0.34 1.02 0 0 Z " fill="#0980B9" transform="translate(136,459)"/>
<path d="M0 0 C10.7523426 -0.34642294 21.15430487 0.73447867 31.8125 2 C33.48755264 2.19338138 35.16268262 2.38609414 36.83789062 2.578125 C40.89285784 3.04439745 44.94667802 3.51964414 49 4 C49 4.33 49 4.66 49 5 C32.29353607 5.16875216 16.45136197 3.93576493 0 1 C0 0.67 0 0.34 0 0 Z " fill="#4296B8" transform="translate(242,421)"/>
<path d="M0 0 C16.14049587 1.79338843 16.14049587 1.79338843 21 7 C13.88492997 7.23545216 7.41093998 6.36607428 0.4375 5 C-0.57119141 4.80921875 -1.57988281 4.6184375 -2.61914062 4.421875 C-5.08091515 3.95518789 -7.54101164 3.48111337 -10 3 C-10 2.67 -10 2.34 -10 2 C-7.03 2 -4.06 2 -1 2 C-0.67 1.34 -0.34 0.68 0 0 Z " fill="#69B0C8" transform="translate(356,473)"/>
<path d="M0 0 C4.60405058 -0.07519808 9.20772935 -0.12908615 13.81225586 -0.16479492 C15.3725407 -0.17970976 16.93278494 -0.20004901 18.49291992 -0.22631836 C28.48933548 -0.39019402 37.33200217 0.16761618 47 3 C47 3.33 47 3.66 47 4 C45.60427948 4.02736707 44.20839779 4.04655989 42.8125 4.0625 C42.03519531 4.07410156 41.25789063 4.08570313 40.45703125 4.09765625 C38 4 38 4 35.828125 3.52734375 C32.32733714 2.87457253 28.84158185 2.66157103 25.29296875 2.46484375 C24.56757401 2.42186661 23.84217926 2.37888947 23.09480286 2.33460999 C20.79254647 2.1989605 18.49004442 2.06815959 16.1875 1.9375 C14.62042396 1.84602382 13.0533664 1.75423035 11.48632812 1.66210938 C7.65775634 1.43773264 3.82895689 1.21770201 0 1 C0 0.67 0 0.34 0 0 Z " fill="#66C5DB" transform="translate(195,285)"/>
<path d="M0 0 C0.95465783 2.16967689 1.14401212 3.56328793 0.3984375 5.82421875 C-0.35870385 7.5684743 -1.17609198 9.28627131 -2 11 C-2.99 11 -3.98 11 -5 11 C-5.33 11.99 -5.66 12.98 -6 14 C-6.66 14 -7.32 14 -8 14 C-8 14.99 -8 15.98 -8 17 C-8.66 17.33 -9.32 17.66 -10 18 C-10.66 18.99 -11.32 19.98 -12 21 C-12.33 21.33 -12.66 21.66 -13 22 C-11.68 22.33 -10.36 22.66 -9 23 C-11.31 23.33 -13.62 23.66 -16 24 C-14.51955471 19.5337128 -12.03374628 16.18783246 -9.125 12.5625 C-5.88467943 8.4808499 -2.83707622 4.37437566 0 0 Z " fill="#40BAD8" transform="translate(240,313)"/>
<path d="M0 0 C0 3 0 3 -1.8125 5.1875 C-4 7 -4 7 -7 7 C-7.0825 7.61875 -7.165 8.2375 -7.25 8.875 C-8 11 -8 11 -9.875 12.1875 C-11.56752155 12.83464059 -13.28096593 13.42698864 -15 14 C-15.144375 14.639375 -15.28875 15.27875 -15.4375 15.9375 C-16 18 -16 18 -17.8125 19.3125 C-20.34856825 20.10955002 -21.50052945 19.72835725 -24 19 C-22.8803014 17.99406757 -21.7540588 16.9954151 -20.625 16 C-19.99851563 15.443125 -19.37203125 14.88625 -18.7265625 14.3125 C-17 13 -17 13 -15 13 C-15 12.34 -15 11.68 -15 11 C-13.49609375 9.66796875 -13.49609375 9.66796875 -11.4375 8.1875 C-10.71433594 7.66285156 -9.99117187 7.13820312 -9.24609375 6.59765625 C-8.50488281 6.07042969 -7.76367188 5.54320312 -7 5 C-6.31035156 4.50371094 -5.62070313 4.00742188 -4.91015625 3.49609375 C-3.27790604 2.32447857 -1.63956415 1.16135794 0 0 Z " fill="#57BED6" transform="translate(247,191)"/>
<path d="M0 0 C0.33 0 0.66 0 1 0 C1.18175781 1.03898437 1.36351562 2.07796875 1.55078125 3.1484375 C2.81904661 10.23575271 4.11975786 17.15128971 6.44921875 23.984375 C7 26 7 26 7 30 C3.1936543 29.32829194 -0.35206816 28.27253436 -4 27 C-4 26.67 -4 26.34 -4 26 C-1.69 26 0.62 26 3 26 C2.69163768 23.87439563 2.37818386 21.74952935 2.0625 19.625 C1.88847656 18.44164062 1.71445312 17.25828125 1.53515625 16.0390625 C1.16537214 13.09297619 1.16537214 13.09297619 0 11 C-0.07033769 9.12620395 -0.0843022 7.24998898 -0.0625 5.375 C-0.05347656 4.37210937 -0.04445313 3.36921875 -0.03515625 2.3359375 C-0.01775391 1.17964844 -0.01775391 1.17964844 0 0 Z " fill="#1DAAC7" transform="translate(340,304)"/>
<path d="M0 0 C0.99 0.33 1.98 0.66 3 1 C1.68 6.61 0.36 12.22 -1 18 C-2.33333333 16 -3.66666667 14 -5 12 C-5.99 12.33 -6.98 12.66 -8 13 C-6.40956621 7.91061189 -3.2553049 4.12543357 0 0 Z " fill="#59C4DD" transform="translate(350,162)"/>
<path d="M0 0 C1.125 3.75 1.125 3.75 0 6 C-0.639375 6.268125 -1.27875 6.53625 -1.9375 6.8125 C-4.68156708 8.39241741 -5.06890124 10.0515206 -6 13 C-6.66 13 -7.32 13 -8 13 C-8 13.66 -8 14.32 -8 15 C-8.66 15 -9.32 15 -10 15 C-10.33 15.99 -10.66 16.98 -11 18 C-11.66 18 -12.32 18 -13 18 C-13 18.66 -13 19.32 -13 20 C-14.32 19.67 -15.64 19.34 -17 19 C-16.35933594 18.29875 -15.71867187 17.5975 -15.05859375 16.875 C-9.97762276 11.3018336 -4.93526783 5.70333931 0 0 Z " fill="#54C3D9" transform="translate(294,82)"/>
<path d="M0 0 C-0.66 1.32 -1.32 2.64 -2 4 C-2.66 3.67 -3.32 3.34 -4 3 C-3.67 3.99 -3.34 4.98 -3 6 C-3.66 6 -4.32 6 -5 6 C-5 6.66 -5 7.32 -5 8 C-3.35 8 -1.7 8 0 8 C-2.1755306 10.1755306 -3.55973892 10.71879553 -6.4375 11.6875 C-7.21996094 11.95949219 -8.00242187 12.23148437 -8.80859375 12.51171875 C-11 13 -11 13 -14 12 C-13.67 11.34 -13.34 10.68 -13 10 C-11.35 10 -9.7 10 -8 10 C-8.50603992 7.83125748 -8.99983813 6.00032373 -10 4 C-6.70320317 0.70320317 -4.71687256 0 0 0 Z " fill="#3896BE" transform="translate(367,367)"/>
<path d="M0 0 C1.32 0.33 2.64 0.66 4 1 C2.35 6.28 0.7 11.56 -1 17 C-1.33 17 -1.66 17 -2 17 C-2.33 14.69 -2.66 12.38 -3 10 C-4.65 10.33 -6.3 10.66 -8 11 C-8 10.34 -8 9.68 -8 9 C-7.34 9 -6.68 9 -6 9 C-5.7525 8.443125 -5.505 7.88625 -5.25 7.3125 C-3.78393985 4.60028873 -1.97010529 2.36412635 0 0 Z " fill="#46B7D1" transform="translate(352,15)"/>
<path d="M0 0 C9.24 1.32 18.48 2.64 28 4 C28 4.33 28 4.66 28 5 C25.93757383 5.02717692 23.87504297 5.0464758 21.8125 5.0625 C20.66394531 5.07410156 19.51539062 5.08570313 18.33203125 5.09765625 C15.40699414 5.01192832 12.83683709 4.67849023 10 4 C10 4.66 10 5.32 10 6 C5.94393835 5.53199289 2.53411321 5.12046792 -1 3 C-0.67 2.01 -0.34 1.02 0 0 Z " fill="#56A0BD" transform="translate(71,372)"/>
<path d="M0 0 C0.33 1.32 0.66 2.64 1 4 C-6.92 3.67 -14.84 3.34 -23 3 C-22.67 2.34 -22.34 1.68 -22 1 C-14.68698064 -0.21883656 -7.39669343 -0.10289063 0 0 Z " fill="#2285B3" transform="translate(317,377)"/>
<path d="M0 0 C1.59134766 0.00676758 1.59134766 0.00676758 3.21484375 0.01367188 C5.80995598 0.02536157 8.40494709 0.04174724 11 0.0625 C11 0.3925 11 0.7225 11 1.0625 C10.36610352 1.1126123 9.73220703 1.16272461 9.07910156 1.21435547 C-6.38277043 2.36406847 -6.38277043 2.36406847 -21.6953125 4.6953125 C-24.1646537 5.08873296 -26.50367453 5.12468604 -29 5.0625 C-20.35599053 -0.70017298 -9.98535279 -0.08123253 0 0 Z " fill="#69C7DB" transform="translate(180,285.9375)"/>
<path d="M0 0 C2.64 0.33 5.28 0.66 8 1 C8 1.66 8 2.32 8 3 C8.66 3.33 9.32 3.66 10 4 C7.03 4 4.06 4 1 4 C0.67 4.66 0.34 5.32 0 6 C1.65 6 3.3 6 5 6 C3.82421875 7.51953125 3.82421875 7.51953125 2 9 C-0.48046875 9.07421875 -0.48046875 9.07421875 -3.1875 8.6875 C-4.08855469 8.56761719 -4.98960937 8.44773437 -5.91796875 8.32421875 C-6.60503906 8.21722656 -7.29210937 8.11023438 -8 8 C-7.360625 7.731875 -6.72125 7.46375 -6.0625 7.1875 C-3.66868314 6.11332248 -3.66868314 6.11332248 -3 3 C-3.66 2.67 -4.32 2.34 -5 2 C-3.35 1.67 -1.7 1.34 0 1 C0 0.67 0 0.34 0 0 Z " fill="#3192BB" transform="translate(378,443)"/>
<path d="M0 0 C0.66 0.33 1.32 0.66 2 1 C1.34 2.65 0.68 4.3 0 6 C-0.99 6 -1.98 6 -3 6 C-2.67 7.65 -2.34 9.3 -2 11 C-3.98 11 -5.96 11 -8 11 C-8.33 11.66 -8.66 12.32 -9 13 C-12.0625 13.625 -12.0625 13.625 -15 14 C-12.03693129 10.94433539 -8.98279839 8.02864172 -5.8125 5.1875 C-5.13832031 4.58292969 -4.46414062 3.97835937 -3.76953125 3.35546875 C-2 2 -2 2 0 2 C0 1.34 0 0.68 0 0 Z " fill="#59C1D9" transform="translate(221,211)"/>
<path d="M0 0 C2.97 0.99 5.94 1.98 9 3 C8.34 4.65 7.68 6.3 7 8 C8.98 8 10.96 8 13 8 C13 8.33 13 8.66 13 9 C7.36718401 9.2396943 2.45461169 8.38529821 -3 7 C-2.505 6.21625 -2.01 5.4325 -1.5 4.625 C0.16537965 2.21447673 0.16537965 2.21447673 0 0 Z " fill="#097FB5" transform="translate(291,460)"/>
<path d="M0 0 C0.33 0.66 0.66 1.32 1 2 C-1.64738916 3.4606285 -2.89448334 4 -6 4 C-6.268125 4.61875 -6.53625 5.2375 -6.8125 5.875 C-8 8 -8 8 -11 10 C-14.1875 10.125 -14.1875 10.125 -17 10 C-14.54344151 7.3387283 -11.88912933 5.00489145 -9.0625 2.75 C-8.41410156 2.22921875 -7.76570313 1.7084375 -7.09765625 1.171875 C-4.56448672 -0.24330351 -2.85766458 -0.21867346 0 0 Z " fill="#37B8D8" transform="translate(299,155)"/>
<path d="M0 0 C0.33 0.99 0.66 1.98 1 3 C-3.625 7.875 -3.625 7.875 -7 9 C-7.2475 9.598125 -7.495 10.19625 -7.75 10.8125 C-9.72582427 14.27019247 -12.44192769 15.28450085 -16 17 C-16.66 16.67 -17.32 16.34 -18 16 C-16.37660195 14.29115995 -14.70680947 12.62553283 -13 11 C-12.34 11 -11.68 11 -11 11 C-11 10.34 -11 9.68 -11 9 C-9.21895282 7.39821407 -7.37462722 5.86618074 -5.5 4.375 C-4.4790625 3.55773437 -3.458125 2.74046875 -2.40625 1.8984375 C-1.6121875 1.27195313 -0.818125 0.64546875 0 0 Z " fill="#4FBDD6" transform="translate(194,234)"/>
<path d="M0 0 C2.22942748 0.14179038 4.45853628 0.28859698 6.6875 0.4375 C7.92886719 0.51871094 9.17023438 0.59992188 10.44921875 0.68359375 C13.39527946 0.94611401 16.10984783 1.42196957 19 2 C21.43505237 2.21698487 23.87301384 2.40290745 26.3125 2.5625 C27.56675781 2.64628906 28.82101563 2.73007812 30.11328125 2.81640625 C31.54220703 2.90728516 31.54220703 2.90728516 33 3 C33 3.33 33 3.66 33 4 C29.35423608 4.05878077 25.70859648 4.0938558 22.0625 4.125 C21.04091797 4.14175781 20.01933594 4.15851563 18.96679688 4.17578125 C12.65749404 4.21609628 7.07163461 3.78101282 1 2 C0.67 1.34 0.34 0.68 0 0 Z " fill="#4A9BBE" transform="translate(100,377)"/>
<path d="M0 0 C0 0.33 0 0.66 0 1 C-1.88332031 1.29003906 -1.88332031 1.29003906 -3.8046875 1.5859375 C-12.24103395 2.89530158 -20.64736007 4.2199292 -29 6 C-29 5.34 -29 4.68 -29 4 C-25.535 3.505 -25.535 3.505 -22 3 C-22 2.34 -22 1.68 -22 1 C-14.35767685 -0.42924436 -7.69565547 -1.30434839 0 0 Z " fill="#4BBCD7" transform="translate(260,329)"/>
<path d="M0 0 C2.86688248 0.09096556 5.70300515 0.23767988 8.5625 0.4375 C9.36880859 0.48970703 10.17511719 0.54191406 11.00585938 0.59570312 C13.00421738 0.72577376 15.00215386 0.86229056 17 1 C17.33 2.32 17.66 3.64 18 5 C12.72 4.67 7.44 4.34 2 4 C2 3.34 2 2.68 2 2 C1.01 1.67 0.02 1.34 -1 1 C-0.67 0.67 -0.34 0.34 0 0 Z " fill="#2081AF" transform="translate(339,471)"/>
<path d="M0 0 C-3.26651375 1.03502777 -6.53877363 2.05053935 -9.8125 3.0625 C-10.74126953 3.35705078 -11.67003906 3.65160156 -12.62695312 3.95507812 C-13.51962891 4.22900391 -14.41230469 4.50292969 -15.33203125 4.78515625 C-16.15421143 5.04176025 -16.9763916 5.29836426 -17.82348633 5.56274414 C-20 6 -20 6 -23 5 C-18.375 1 -18.375 1 -15 1 C-14.67 0.34 -14.34 -0.32 -14 -1 C-14 -0.34 -14 0.32 -14 1 C-13.32453125 0.76023437 -12.6490625 0.52046875 -11.953125 0.2734375 C-11.06109375 -0.02304687 -10.1690625 -0.31953125 -9.25 -0.625 C-8.36828125 -0.92664063 -7.4865625 -1.22828125 -6.578125 -1.5390625 C-3.53287635 -2.08351605 -2.62322633 -1.4676415 0 0 Z " fill="#2888B2" transform="translate(352,381)"/>
<path d="M0 0 C-1.546875 0.433125 -1.546875 0.433125 -3.125 0.875 C-5.42752613 1.52431237 -7.62637914 2.23148794 -9.875 3.0625 C-17.41618705 5.32485611 -25.19017149 5.13138029 -33 5 C-33 4.67 -33 4.34 -33 4 C-28.7840389 3.26025761 -24.56656071 2.53012173 -20.34741211 1.80883789 C-18.91238621 1.56212438 -17.47780788 1.31279268 -16.04370117 1.06079102 C-13.98207918 0.69899027 -11.91903025 0.34664023 -9.85546875 -0.00390625 C-8.61434326 -0.21861572 -7.37321777 -0.4333252 -6.09448242 -0.65454102 C-3 -1 -3 -1 0 0 Z " fill="#56A1BC" transform="translate(357,370)"/>
<path d="M0 0 C-0.99 0.33 -1.98 0.66 -3 1 C-3 1.66 -3 2.32 -3 3 C-1.02 3 0.96 3 3 3 C3 3.33 3 3.66 3 4 C-5.415 4.495 -5.415 4.495 -14 5 C-14 4.01 -14 3.02 -14 2 C-12.23225581 1.46877637 -10.46065917 0.95035927 -8.6875 0.4375 C-7.70136719 0.14746094 -6.71523437 -0.14257812 -5.69921875 -0.44140625 C-3 -1 -3 -1 0 0 Z " fill="#5DA8C4" transform="translate(122,466)"/>
<path d="M0 0 C1.3494709 2.69894181 0.66874571 3.72118731 -0.21484375 6.5703125 C-0.48876953 7.46621094 -0.76269531 8.36210938 -1.04492188 9.28515625 C-1.33947266 10.22230469 -1.63402344 11.15945312 -1.9375 12.125 C-2.22818359 13.06988281 -2.51886719 14.01476563 -2.81835938 14.98828125 C-3.53906479 17.32762013 -4.26652606 19.66463921 -5 22 C-5.33 22 -5.66 22 -6 22 C-6 18.37 -6 14.74 -6 11 C-5.34 11 -4.68 11 -4 11 C-3.896875 9.741875 -3.79375 8.48375 -3.6875 7.1875 C-3.35141192 4.39500343 -3.19974124 3.25566879 -1.4375 1 C-0.963125 0.67 -0.48875 0.34 0 0 Z " fill="#45B9D5" transform="translate(349,33)"/>
<path d="M0 0 C2.29141286 -0.05384521 4.58318188 -0.09272087 6.875 -0.125 C8.78925781 -0.15980469 8.78925781 -0.15980469 10.7421875 -0.1953125 C14 0 14 0 16 2 C15.01 2.33 14.02 2.66 13 3 C12.67 3.66 12.34 4.32 12 5 C6.92387682 5.61528766 4.17017994 3.61658349 0 1 C0 0.67 0 0.34 0 0 Z " fill="#0781BB" transform="translate(87,378)"/>
<path d="M0 0 C0.33 0.66 0.66 1.32 1 2 C-2.08888522 4.05925681 -2.70935927 4.2390374 -6.1875 4.125 C-8.0746875 4.063125 -8.0746875 4.063125 -10 4 C-10.33 5.32 -10.66 6.64 -11 8 C-12.65 8 -14.3 8 -16 8 C-15.67 6.35 -15.34 4.7 -15 3 C-9.97350697 1.42922093 -5.23880078 0.55145271 0 0 Z " fill="#0781B8" transform="translate(378,367)"/>
<path d="M0 0 C1.65 0.33 3.3 0.66 5 1 C2.12178487 5.64942443 -0.95209924 9.30409061 -5 13 C-5.66 13 -6.32 13 -7 13 C-6.66666667 11.66666667 -6.33333333 10.33333333 -6 9 C-5.855625 8.29875 -5.71125 7.5975 -5.5625 6.875 C-5 5 -5 5 -3 3 C-3 3.66 -3 4.32 -3 5 C-2.01 5 -1.02 5 0 5 C0 3.35 0 1.7 0 0 Z " fill="#39B9D5" transform="translate(343,128)"/>
<path d="M0 0 C0.33 1.32 0.66 2.64 1 4 C0.34 4 -0.32 4 -1 4 C-1 4.66 -1 5.32 -1 6 C1.64 6.33 4.28 6.66 7 7 C7 7.33 7 7.66 7 8 C5.4176994 8.33820166 3.83410625 8.67035939 2.25 9 C0.92742187 9.2784375 0.92742187 9.2784375 -0.421875 9.5625 C-3 10 -3 10 -7 10 C-5.33248852 6.05860922 -2.77289351 3.2107188 0 0 Z " fill="#65C5D6" transform="translate(248,134)"/>
<path d="M0 0 C0 0.66 0 1.32 0 2 C-4.29 2 -8.58 2 -13 2 C-13 2.66 -13 3.32 -13 4 C-15.31 4.33 -17.62 4.66 -20 5 C-20 4.34 -20 3.68 -20 3 C-21.65 3 -23.3 3 -25 3 C-25 2.67 -25 2.34 -25 2 C-21.95872183 1.66274935 -18.91705809 1.33007668 -15.875 1 C-15.0190625 0.90460938 -14.163125 0.80921875 -13.28125 0.7109375 C-8.82977526 0.23154791 -4.48558075 -0.11765458 0 0 Z " fill="#4C97B9" transform="translate(131,424)"/>
<path d="M0 0 C0 3.75366417 -1.11420063 5.78715662 -3 9 C-3.99 9.33 -4.98 9.66 -6 10 C-6.28875 10.639375 -6.5775 11.27875 -6.875 11.9375 C-8.39098648 14.71680854 -10.05867273 15.07115981 -13 16 C-13 15.34 -13 14.68 -13 14 C-12.34 14 -11.68 14 -11 14 C-10.76539063 13.44828125 -10.53078125 12.8965625 -10.2890625 12.328125 C-8.67151842 9.40674236 -6.63549805 7.20425503 -4.375 4.75 C-3.55773437 3.85796875 -2.74046875 2.9659375 -1.8984375 2.046875 C-1.27195312 1.37140625 -0.64546875 0.6959375 0 0 Z " fill="#55BED5" transform="translate(327,44)"/>
<path d="M0 0 C0.66 0 1.32 0 2 0 C0.32076975 3.80133442 -2.11462834 6.97082702 -4.625 10.25 C-5.04523438 10.80429688 -5.46546875 11.35859375 -5.8984375 11.9296875 C-6.92938719 13.28866663 -7.96429911 14.64463835 -9 16 C-9.64453125 14.1875 -9.64453125 14.1875 -10 12 C-8.80586802 10.45085581 -7.60061856 8.90491309 -6.28125 7.4609375 C-4.80629657 5.77913084 -3.86966801 4.05557894 -3 2 C-2.01 2 -1.02 2 0 2 C0 1.34 0 0.68 0 0 Z " fill="#4DBBD6" transform="translate(317,163)"/>
<path d="M0 0 C-0.66 1.32 -1.32 2.64 -2 4 C-2.66 4 -3.32 4 -4 4 C-4.28875 4.639375 -4.5775 5.27875 -4.875 5.9375 C-6 8 -6 8 -8 9 C-8.185625 8.071875 -8.185625 8.071875 -8.375 7.125 C-8.87197356 4.80879168 -8.87197356 4.80879168 -11 3 C-9.73581754 2.30034557 -8.46334598 1.61565237 -7.1875 0.9375 C-6.47980469 0.55464844 -5.77210938 0.17179687 -5.04296875 -0.22265625 C-3 -1 -3 -1 0 0 Z " fill="#69C0CB" transform="translate(356,120)"/>
<path d="M0 0 C5.32372203 -0.10393384 10.62330013 -0.04177999 15.9375 0.3125 C16.83339844 0.37050781 17.72929687 0.42851562 18.65234375 0.48828125 C21.33825227 1.07372886 22.29123738 1.89647374 24 4 C18.49567039 4.1754368 13.46337653 3.5274161 8.0625 2.5 C6.89364258 2.28537109 6.89364258 2.28537109 5.70117188 2.06640625 C3.7997579 1.71645276 1.89972607 1.35900335 0 1 C0 0.67 0 0.34 0 0 Z " fill="#509CBC" transform="translate(346,446)"/>
<path d="M0 0 C1.65 0 3.3 0 5 0 C5.33 0.66 5.66 1.32 6 2 C-10.70842825 5.25968109 -10.70842825 5.25968109 -19 6 C-19 5.34 -19 4.68 -19 4 C-12.74051886 1.86608597 -6.57791873 1.41044485 0 1 C0 0.67 0 0.34 0 0 Z " fill="#4B99BB" transform="translate(224,443)"/>
<path d="M0 0 C0.33 0 0.66 0 1 0 C1.14285714 8.57142857 1.14285714 8.57142857 0 12 C1.98 11.34 3.96 10.68 6 10 C6 10.66 6 11.32 6 12 C3.04518508 14.74375671 2.22528092 15 -2 15 C-1.85930804 12.87465341 -1.71229079 10.74972471 -1.5625 8.625 C-1.48128906 7.44164062 -1.40007812 6.25828125 -1.31640625 5.0390625 C-1 2 -1 2 0 0 Z " fill="#47BCD4" transform="translate(327,121)"/>
<path d="M0 0 C1.12051758 0.14405273 1.12051758 0.14405273 2.26367188 0.29101562 C6.42064764 0.83481667 10.55633241 1.47160609 14.6875 2.1875 C11.17719967 4.4251085 9.0751645 4.19553166 5.0625 3.375 C-0.39020948 2.33670765 -5.78392443 1.65229175 -11.3125 1.1875 C-7.34690993 -1.45622672 -4.48244794 -0.63599729 0 0 Z " fill="#4F9ABB" transform="translate(310.3125,427.8125)"/>
<path d="M0 0 C4.29 0 8.58 0 13 0 C12.01 0.33 11.02 0.66 10 1 C10 1.66 10 2.32 10 3 C5.05 3.66 0.1 4.32 -5 5 C-5 4.34 -5 3.68 -5 3 C-4.360625 2.87625 -3.72125 2.7525 -3.0625 2.625 C-2.0415625 2.315625 -2.0415625 2.315625 -1 2 C-0.67 1.34 -0.34 0.68 0 0 Z " fill="#27B0D7" transform="translate(141,289)"/>
<path d="M0 0 C0.66 0.66 1.32 1.32 2 2 C0.02 2.33 -1.96 2.66 -4 3 C-3.67 3.66 -3.34 4.32 -3 5 C-4.258125 5.04125 -5.51625 5.0825 -6.8125 5.125 C-7.52019531 5.14820313 -8.22789062 5.17140625 -8.95703125 5.1953125 C-11 5 -11 5 -14 3 C-8.99774887 -0.00135068 -5.6839803 -0.47366503 0 0 Z " fill="#4EA3C3" transform="translate(192,450)"/>
<path d="M0 0 C6.43974581 0.62320121 12.67572401 1.64008262 19 3 C19 3.33 19 3.66 19 4 C17.08496326 4.22281874 15.16783494 4.42771076 13.25 4.625 C12.18265625 4.74101562 11.1153125 4.85703125 10.015625 4.9765625 C6.96207601 5.00029475 5.53837579 4.61420985 3 3 C3 2.34 3 1.68 3 1 C2.01 0.67 1.02 0.34 0 0 Z " fill="#479BBD" transform="translate(326,431)"/>
<path d="M0 0 C-1 3 -1 3 -2.99609375 4.16796875 C-3.80175781 4.50441406 -4.60742188 4.84085937 -5.4375 5.1875 C-6.24058594 5.53167969 -7.04367187 5.87585938 -7.87109375 6.23046875 C-10 7 -10 7 -12 7 C-12 6.34 -12 5.68 -12 5 C-12.99 4.34 -13.98 3.68 -15 3 C-12.87562952 2.49733206 -10.75048274 1.9979439 -8.625 1.5 C-7.44164062 1.2215625 -6.25828125 0.943125 -5.0390625 0.65625 C-2 0 -2 0 0 0 Z " fill="#7CA7BE" transform="translate(413,356)"/>
<path d="M0 0 C1.24546405 2.49092811 0.7767578 3.41080733 0 6 C-0.66 6 -1.32 6 -2 6 C-2.33 6.99 -2.66 7.98 -3 9 C-4.62890625 10.60546875 -4.62890625 10.60546875 -6.5625 12.1875 C-7.20316406 12.71730469 -7.84382812 13.24710938 -8.50390625 13.79296875 C-8.99761719 14.19128906 -9.49132812 14.58960938 -10 15 C-10.66 14.67 -11.32 14.34 -12 14 C-10.5489926 12.16086305 -9.08898341 10.3288247 -7.625 8.5 C-6.81289062 7.4790625 -6.00078125 6.458125 -5.1640625 5.40625 C-4.44992187 4.6121875 -3.73578125 3.818125 -3 3 C-2.34 3 -1.68 3 -1 3 C-0.67 2.01 -0.34 1.02 0 0 Z " fill="#54C0D5" transform="translate(261,119)"/>
<path d="M0 0 C1.60568666 0.28317926 3.20952047 0.57687791 4.8125 0.875 C6.15248047 1.11863281 6.15248047 1.11863281 7.51953125 1.3671875 C10 2 10 2 13 4 C12.34515625 3.98839844 11.6903125 3.97679687 11.015625 3.96484375 C3.9563366 3.89504853 -2.97575988 4.31351231 -10 5 C-10 4.67 -10 4.34 -10 4 C-9.04287109 3.81824219 -9.04287109 3.81824219 -8.06640625 3.6328125 C-7.24011719 3.46523438 -6.41382813 3.29765625 -5.5625 3.125 C-4.73878906 2.96257812 -3.91507812 2.80015625 -3.06640625 2.6328125 C-2.38449219 2.42398437 -1.70257813 2.21515625 -1 2 C-0.67 1.34 -0.34 0.68 0 0 Z " fill="#479ABD" transform="translate(426,456)"/>
<path d="M0 0 C0 3.98919362 -1.17179136 6.46966608 -3 10 C-5.4375 11.8125 -5.4375 11.8125 -8 13 C-8.763125 13.391875 -9.52625 13.78375 -10.3125 14.1875 C-10.869375 14.455625 -11.42625 14.72375 -12 15 C-12 14.34 -12 13.68 -12 13 C-11.34 13 -10.68 13 -10 13 C-9.63261719 12.15695313 -9.63261719 12.15695313 -9.2578125 11.296875 C-7.77073461 8.58134146 -5.95937218 6.53608562 -3.875 4.25 C-3.15054687 3.45078125 -2.42609375 2.6515625 -1.6796875 1.828125 C-0.84824219 0.92320313 -0.84824219 0.92320313 0 0 Z " fill="#64C4DA" transform="translate(341,28)"/>
<path d="M0 0 C0.99 0.33 1.98 0.66 3 1 C3 6.61 3 12.22 3 18 C0.91163328 13.82326657 0.6304381 11.34788582 0.375 6.75 C0.30023438 5.48671875 0.22546875 4.2234375 0.1484375 2.921875 C0.09945313 1.95765625 0.05046875 0.9934375 0 0 Z " fill="#21B1D5" transform="translate(337,297)"/>
<path d="M0 0 C1.13902011 3.41706032 0.8198446 4.66260692 0.00390625 8.10546875 C-0.22490234 9.08837891 -0.45371094 10.07128906 -0.68945312 11.08398438 C-0.93630859 12.10814453 -1.18316406 13.13230469 -1.4375 14.1875 C-1.68048828 15.22326172 -1.92347656 16.25902344 -2.17382812 17.32617188 C-2.77542099 19.88589053 -3.38440501 22.44361918 -4 25 C-4.33 25 -4.66 25 -5 25 C-5 22.03 -5 19.06 -5 16 C-4.34 16 -3.68 16 -3 16 C-3.03480469 15.43152344 -3.06960938 14.86304687 -3.10546875 14.27734375 C-3.30230592 8.66279774 -2.55495317 5.00344995 0 0 Z " fill="#71C8DD" transform="translate(336,79)"/>
<path d="M0 0 C1.29132785 3.87398355 0.41113572 6.81988786 -0.4375 10.6875 C-0.58509766 11.38939453 -0.73269531 12.09128906 -0.88476562 12.81445312 C-1.2495932 14.54444194 -1.62388689 16.27242963 -2 18 C-2.33 18 -2.66 18 -3 18 C-3 12.72 -3 7.44 -3 2 C-2.01 2 -1.02 2 0 2 C0 1.34 0 0.68 0 0 Z " fill="#51BEDA" transform="translate(347,180)"/>
<path d="M0 0 C0.33 0.99 0.66 1.98 1 3 C-1.29191702 6.48031844 -3.27777615 8.2629622 -7 10 C-7.99 11.485 -7.99 11.485 -9 13 C-9.66 12.67 -10.32 12.34 -11 12 C-10.34 10.68 -9.68 9.36 -9 8 C-8.34 8 -7.68 8 -7 8 C-7 7.34 -7 6.68 -7 6 C-6.34 6 -5.68 6 -5 6 C-5 5.34 -5 4.68 -5 4 C-3.37373596 2.61767557 -1.7074998 1.28062485 0 0 Z " fill="#3CB7D2" transform="translate(149,274)"/>
<path d="M0 0 C0.33 0 0.66 0 1 0 C1.10477512 5.78591511 0.99250545 11.29309366 0 17 C-0.66 17 -1.32 17 -2 17 C-2.05441656 15.10448978 -2.09298035 13.2085208 -2.125 11.3125 C-2.14820313 10.25675781 -2.17140625 9.20101562 -2.1953125 8.11328125 C-1.99858729 4.97748141 -1.33057654 2.82354627 0 0 Z " fill="#3CB5D1" transform="translate(343,192)"/>
<path d="M0 0 C0.33 0.66 0.66 1.32 1 2 C-1.33269471 7.52480326 -4.67270241 11.88906729 -9 16 C-9.66 15.67 -10.32 15.34 -11 15 C-7.37 10.05 -3.74 5.1 0 0 Z " fill="#59C1D6" transform="translate(341,175)"/>
<path d="M0 0 C0.66 0.33 1.32 0.66 2 1 C3.27536232 6.44927536 3.27536232 6.44927536 2 9 C1.34 9 0.68 9 0 9 C-0.33 7.68 -0.66 6.36 -1 5 C-1.66 5 -2.32 5 -3 5 C-3.33 5.99 -3.66 6.98 -4 8 C-4.33 7.34 -4.66 6.68 -5 6 C-2.59016393 1.29508197 -2.59016393 1.29508197 0 0 Z " fill="#11AED7" transform="translate(345,173)"/>
<path d="M0 0 C0.33 0.99 0.66 1.98 1 3 C-0.98 3.33 -2.96 3.66 -5 4 C-4.67 4.99 -4.34 5.98 -4 7 C-2.35 7.33 -0.7 7.66 1 8 C1 8.66 1 9.32 1 10 C-1.97 9.67 -4.94 9.34 -8 9 C-8 8.34 -8 7.68 -8 7 C-7.34 7 -6.68 7 -6 7 C-6 5.68 -6 4.36 -6 3 C-2.78571429 0 -2.78571429 0 0 0 Z " fill="#11ADD6" transform="translate(255,131)"/>
<path d="M0 0 C0.33 0 0.66 0 1 0 C1 2.97 1 5.94 1 9 C-0.65 9.33 -2.3 9.66 -4 10 C-3.67 7.69 -3.34 5.38 -3 3 C-2.34 3 -1.68 3 -1 3 C-0.67 2.01 -0.34 1.02 0 0 Z " fill="#2BB7DC" transform="translate(276,102)"/>
<path d="M0 0 C1.72926874 0.31193464 3.45841044 0.62457362 5.1875 0.9375 C6.15042969 1.11152344 7.11335938 1.28554688 8.10546875 1.46484375 C10.74239972 1.9523735 13.3719905 2.46671105 16 3 C16 3.33 16 3.66 16 4 C11.38 4 6.76 4 2 4 C1.34 2.68 0.68 1.36 0 0 Z " fill="#3D93B9" transform="translate(362,439)"/>
<path d="M0 0 C2.8125 -0.25 2.8125 -0.25 6 0 C7.6875 1.875 7.6875 1.875 9 4 C9.99 4.66 10.98 5.32 12 6 C10.375 6.75 10.375 6.75 8 7 C4.75 5.1875 4.75 5.1875 2 3 C2 2.34 2 1.68 2 1 C1.34 0.67 0.68 0.34 0 0 Z " fill="#479BBE" transform="translate(28,432)"/>
<path d="M0 0 C-0.99 0.495 -0.99 0.495 -2 1 C-2.33 1.99 -2.66 2.98 -3 4 C-4.65 4.33 -6.3 4.66 -8 5 C-8 4.01 -8 3.02 -8 2 C-9.65 2 -11.3 2 -13 2 C-13 1.67 -13 1.34 -13 1 C-8.59085217 -0.10228696 -4.51617599 -0.07654536 0 0 Z " fill="#5098B5" transform="translate(403,360)"/>
<path d="M0 0 C2 2 2 2 2 3.9375 C0.46750739 7.09826601 -1.82008793 7.76697287 -5 9 C-5.66 8.67 -6.32 8.34 -7 8 C-4.69 5.36 -2.38 2.72 0 0 Z " fill="#45BCDB" transform="translate(312,61)"/>
<path d="M0 0 C1 3 1 3 0.109375 4.7890625 C-0.33921875 5.39492187 -0.7878125 6.00078125 -1.25 6.625 C-1.68828125 7.23601562 -2.1265625 7.84703125 -2.578125 8.4765625 C-4 10 -4 10 -7 11 C-5.25 4.25 -5.25 4.25 -3 2 C-2.01 2 -1.02 2 0 2 C0 1.34 0 0.68 0 0 Z " fill="#30B5D4" transform="translate(290,247)"/>
<path d="M0 0 C0.99 0 1.98 0 3 0 C2.67 1.65 2.34 3.3 2 5 C1.01 5.33 0.02 5.66 -1 6 C-2.20882096 8.00016466 -2.20882096 8.00016466 -3 10 C-3.33 9.34 -3.66 8.68 -4 8 C-2.98446183 4.9533855 -1.79237442 2.68856164 0 0 Z " fill="#2AB4D2" transform="translate(329,191)"/>
<path d="M0 0 C0 0.66 0 1.32 0 2 C-3.56045177 3.18681726 -6.43808337 3.09689832 -10.1875 3.0625 C-11.45980469 3.05347656 -12.73210937 3.04445313 -14.04296875 3.03515625 C-15.50669922 3.01775391 -15.50669922 3.01775391 -17 3 C-17 2.67 -17 2.34 -17 2 C-15.10507994 1.66151348 -13.20901534 1.32943089 -11.3125 1 C-9.72888672 0.7215625 -9.72888672 0.7215625 -8.11328125 0.4375 C-5.35095938 0.04931926 -2.78257957 -0.08259976 0 0 Z " fill="#107BAB" transform="translate(134,459)"/>
<path d="M0 0 C0.66 0.33 1.32 0.66 2 1 C2 2.32 2 3.64 2 5 C3.1446875 5.185625 3.1446875 5.185625 4.3125 5.375 C7 6 7 6 10 8 C5.03083364 7.48594831 0.70973649 6.76615118 -4 5 C-2.68 4.67 -1.36 4.34 0 4 C-0.33 3.01 -0.66 2.02 -1 1 C-0.67 0.67 -0.34 0.34 0 0 Z " fill="#47A0C0" transform="translate(118,386)"/>
<path d="M0 0 C0 3 0 3 -1.390625 4.640625 C-2.00421875 5.17171875 -2.6178125 5.7028125 -3.25 6.25 C-4.15492188 7.06210937 -4.15492188 7.06210937 -5.078125 7.890625 C-7 9 -7 9 -9.234375 8.671875 C-9.81703125 8.45015625 -10.3996875 8.2284375 -11 8 C-9.54712339 6.66072279 -8.08752741 5.32873153 -6.625 4 C-5.81289062 3.2575 -5.00078125 2.515 -4.1640625 1.75 C-2 0 -2 0 0 0 Z " fill="#51BCD2" transform="translate(176,251)"/>
<path d="M0 0 C0.66 0.33 1.32 0.66 2 1 C1.34 2.65 0.68 4.3 0 6 C-0.99 6 -1.98 6 -3 6 C-2.67 7.65 -2.34 9.3 -2 11 C-3.65 11 -5.3 11 -7 11 C-6.40844669 9.68176698 -5.80128537 8.37052949 -5.1875 7.0625 C-4.85105469 6.33160156 -4.51460937 5.60070312 -4.16796875 4.84765625 C-3 3 -3 3 0 2 C0 1.34 0 0.68 0 0 Z " fill="#34B6DF" transform="translate(221,211)"/>
<path d="M0 0 C1.32 0.33 2.64 0.66 4 1 C3.3515625 2.953125 3.3515625 2.953125 2 5 C-0.6015625 5.609375 -0.6015625 5.609375 -3.625 5.75 C-4.62789062 5.80671875 -5.63078125 5.8634375 -6.6640625 5.921875 C-7.43492187 5.94765625 -8.20578125 5.9734375 -9 6 C-6.08235 4.0549 -4.37462715 3.54723683 -1 3 C-0.67 2.01 -0.34 1.02 0 0 Z " fill="#097EAD" transform="translate(136,459)"/>
<path d="M0 0 C0.33 1.32 0.66 2.64 1 4 C-2.3 4 -5.6 4 -9 4 C-9.33 3.34 -9.66 2.68 -10 2 C-6.38026598 0.68373308 -3.90432869 0 0 0 Z " fill="#057FB2" transform="translate(169,454)"/>
<path d="M0 0 C3.52922225 0.81928374 4.23644079 1.2521937 6.5 3.8125 C5.08376784 3.86697047 3.66691809 3.90550508 2.25 3.9375 C1.46109375 3.96070313 0.6721875 3.98390625 -0.140625 4.0078125 C-2.70731941 3.7953378 -4.2916067 3.09904105 -6.5 1.8125 C-3.5 -0.1875 -3.5 -0.1875 0 0 Z " fill="#81ABB9" transform="translate(370.5,476.1875)"/>
<path d="M0 0 C1.093125 0.226875 2.18625 0.45375 3.3125 0.6875 C2.9825 1.3475 2.6525 2.0075 2.3125 2.6875 C0.24609375 3.3203125 0.24609375 3.3203125 -2.25 3.8125 C-3.07628906 3.98007812 -3.90257813 4.14765625 -4.75390625 4.3203125 C-5.39199219 4.44148438 -6.03007813 4.56265625 -6.6875 4.6875 C-6.6875 2.6875 -6.6875 2.6875 -5.625 1 C-3.6875 -0.3125 -3.6875 -0.3125 0 0 Z " fill="#2188B3" transform="translate(125.6875,464.3125)"/>
<path d="M0 0 C11.52164009 -0.18451025 11.52164009 -0.18451025 17 1 C17 1.33 17 1.66 17 2 C12.05 2.33 7.1 2.66 2 3 C1.34 2.01 0.68 1.02 0 0 Z " fill="#3093C0" transform="translate(146,422)"/>
<path d="M0 0 C0.33 0.99 0.66 1.98 1 3 C-0.65 4.65 -2.3 6.3 -4 8 C-5.32 7.34 -6.64 6.68 -8 6 C-5.36 4.02 -2.72 2.04 0 0 Z " fill="#4BBAD8" transform="translate(273,171)"/>
<path d="M0 0 C0.99 0.33 1.98 0.66 3 1 C2.01 4.96 1.02 8.92 0 13 C-0.33 13 -0.66 13 -1 13 C-0.67 10.36 -0.34 7.72 0 5 C-0.99 5.33 -1.98 5.66 -3 6 C-2 4 -1 2 0 0 Z " fill="#87C7D3" transform="translate(350,162)"/>
<path d="M0 0 C1.79240663 0.11389875 3.58394835 0.24147687 5.375 0.375 C6.87160156 0.47941406 6.87160156 0.47941406 8.3984375 0.5859375 C11 1 11 1 13 3 C11.296875 4.1171875 11.296875 4.1171875 9 5 C6.640625 4.3203125 6.640625 4.3203125 4.25 3.125 C3.45078125 2.73570312 2.6515625 2.34640625 1.828125 1.9453125 C0.92320313 1.47738281 0.92320313 1.47738281 0 1 C0 0.67 0 0.34 0 0 Z " fill="#4C9DBD" transform="translate(58,450)"/>
<path d="M0 0 C0.33 0.66 0.66 1.32 1 2 C1.66 2.33 2.32 2.66 3 3 C1.29374499 5.78388975 0.52373261 6.85384206 -2.6875 7.75 C-3.8321875 7.87375 -3.8321875 7.87375 -5 8 C-5 7.34 -5 6.68 -5 6 C-4.34 6 -3.68 6 -3 6 C-2.690625 5.195625 -2.38125 4.39125 -2.0625 3.5625 C-1 1 -1 1 0 0 Z " fill="#40BED9" transform="translate(246,305)"/>
<path d="M0 0 C-0.25 1.875 -0.25 1.875 -1 4 C-2.8125 5.3125 -2.8125 5.3125 -5 6 C-7.25 5.625 -7.25 5.625 -9 5 C-3.375 0 -3.375 0 0 0 Z " fill="#3BB5D5" transform="translate(232,205)"/>
<path d="M0 0 C1.47919922 0.06960938 1.47919922 0.06960938 2.98828125 0.140625 C3.98214844 0.17671875 4.97601563 0.2128125 6 0.25 C7.13888672 0.31960938 7.13888672 0.31960938 8.30078125 0.390625 C5.25381835 2.08496418 2.47256659 2.88529612 -0.94921875 3.515625 C-2.28726562 3.76699219 -2.28726562 3.76699219 -3.65234375 4.0234375 C-4.3278125 4.14460938 -5.00328125 4.26578125 -5.69921875 4.390625 C-4.03190196 1.4998505 -3.38689549 0.49014407 0 0 Z " fill="#56A5C2" transform="translate(334.69921875,382.609375)"/>
<path d="M0 0 C1.24546405 2.49092811 0.7767578 3.41080733 0 6 C-0.66 6 -1.32 6 -2 6 C-2.33 6.99 -2.66 7.98 -3 9 C-3.66 9 -4.32 9 -5 9 C-5 9.66 -5 10.32 -5 11 C-5.66 11 -6.32 11 -7 11 C-5.5140084 6.40693504 -3.14985318 3.56430755 0 0 Z " fill="#59C0D8" transform="translate(295,238)"/>
<path d="M0 0 C0.66 0 1.32 0 2 0 C1.01 4.95 0.02 9.9 -1 15 C-1.33 15 -1.66 15 -2 15 C-2.3690205 4.44191344 -2.3690205 4.44191344 0 0 Z " fill="#5BC2D8" transform="translate(273,240)"/>
<path d="M0 0 C0.33 0.66 0.66 1.32 1 2 C0.67 2.66 0.34 3.32 0 4 C-0.66 4 -1.32 4 -2 4 C-2.226875 4.94875 -2.45375 5.8975 -2.6875 6.875 C-4 10 -4 10 -6.625 11.375 C-7.40875 11.58125 -8.1925 11.7875 -9 12 C-7.4722133 8.56247993 -5.49818944 5.81046312 -3 3 C-2.34 3 -1.68 3 -1 3 C-0.67 2.01 -0.34 1.02 0 0 Z " fill="#6CC5D8" transform="translate(304,70)"/>
<path d="M0 0 C5.625 -0.25 5.625 -0.25 9 2 C9 2.66 9 3.32 9 4 C6.03 3.67 3.06 3.34 0 3 C0 2.01 0 1.02 0 0 Z " fill="#0582BD" transform="translate(401,452)"/>
<path d="M0 0 C0.72445313 0.13277344 1.44890625 0.26554687 2.1953125 0.40234375 C7.12491105 1.30281709 12.05322123 2.19781966 17 3 C17 3.33 17 3.66 17 4 C10.48208608 4.3540919 5.82478551 4.03901852 0 1 C0 0.67 0 0.34 0 0 Z " fill="#55A2BC" transform="translate(345,435)"/>
<path d="M0 0 C0.33 0.66 0.66 1.32 1 2 C1.99 2.66 2.98 3.32 4 4 C-0.571279 3.45144652 -4.67435795 2.58255197 -9 1 C-9 0.67 -9 0.34 -9 0 C-3.375 -1.125 -3.375 -1.125 0 0 Z " fill="#4F9BBA" transform="translate(110,386)"/>
<path d="M0 0 C2.875 0.1875 2.875 0.1875 6 1 C7.375 3.5625 7.375 3.5625 8 6 C5.03 5.01 2.06 4.02 -1 3 C-0.67 2.01 -0.34 1.02 0 0 Z " fill="#70A5B3" transform="translate(71,372)"/>
<path d="M0 0 C2 3.75 2 3.75 2 6 C0.35 6.33 -1.3 6.66 -3 7 C-3 3 -3 3 -1.5 1.25 C-1.005 0.8375 -0.51 0.425 0 0 Z " fill="#5DBFD1" transform="translate(131,292)"/>
<path d="M0 0 C0 0.66 0 1.32 0 2 C-0.66 2 -1.32 2 -2 2 C-2.226875 2.78375 -2.45375 3.5675 -2.6875 4.375 C-4 7 -4 7 -6.625 8.3125 C-7.40875 8.539375 -8.1925 8.76625 -9 9 C-8.34 7.68 -7.68 6.36 -7 5 C-6.34 5 -5.68 5 -5 5 C-4.814375 4.0409375 -4.814375 4.0409375 -4.625 3.0625 C-4.41875 2.381875 -4.2125 1.70125 -4 1 C-2 0 -2 0 0 0 Z " fill="#15AED4" transform="translate(309,69)"/>
<path d="M0 0 C6.0546875 -0.1953125 6.0546875 -0.1953125 8 0 C8.66 0.66 9.32 1.32 10 2 C6.7 2.33 3.4 2.66 0 3 C0 2.01 0 1.02 0 0 Z " fill="#4690A4" transform="translate(108,468)"/>
<path d="M0 0 C4.455 0.99 4.455 0.99 9 2 C9 2.66 9 3.32 9 4 C9.99 4 10.98 4 12 4 C12 4.66 12 5.32 12 6 C8.98782888 5.35550393 6.48344164 4.34977818 3.75 2.9375 C3.04359375 2.57527344 2.3371875 2.21304687 1.609375 1.83984375 C1.07828125 1.56269531 0.5471875 1.28554688 0 1 C0 0.67 0 0.34 0 0 Z " fill="#64A5C0" transform="translate(46,444)"/>
<path d="M0 0 C0.66 0 1.32 0 2 0 C2.33 1.32 2.66 2.64 3 4 C-1.05431692 5.15837626 -3.21812119 4.83691257 -7 3 C-7 2.67 -7 2.34 -7 2 C-4.69 2 -2.38 2 0 2 C0 1.34 0 0.68 0 0 Z " fill="#3B93BA" transform="translate(99,381)"/>
<path d="M0 0 C0.33 0 0.66 0 1 0 C2.19088986 5.38027025 3.2919519 10.45291384 3 16 C0.30576713 11.95865069 -0.11848959 10.19010472 -0.0625 5.375 C-0.05347656 4.37210937 -0.04445313 3.36921875 -0.03515625 2.3359375 C-0.02355469 1.56507813 -0.01195312 0.79421875 0 0 Z " fill="#5AC1D2" transform="translate(340,304)"/>
<path d="M0 0 C0.66 0.33 1.32 0.66 2 1 C-1.61328125 5.6875 -1.61328125 5.6875 -3 7 C-3.99 7 -4.98 7 -6 7 C-6 7.66 -6 8.32 -6 9 C-6.66 9 -7.32 9 -8 9 C-6.59645587 5.49113968 -5.35634177 4.5732852 -2 3 C-1.34 2.01 -0.68 1.02 0 0 Z " fill="#2BB6DC" transform="translate(315,214)"/>
<path d="M0 0 C1.45047396 2.90094791 0.45356803 4.55972596 -0.4375 7.625 C-0.72496094 8.62789062 -1.01242187 9.63078125 -1.30859375 10.6640625 C-1.53675781 11.43492188 -1.76492188 12.20578125 -2 13 C-2.33 13 -2.66 13 -3 13 C-3.08121924 11.39667209 -3.13929134 9.79215974 -3.1875 8.1875 C-3.22230469 7.29417969 -3.25710938 6.40085937 -3.29296875 5.48046875 C-2.95081002 2.58352485 -2.24606427 1.77444972 0 0 Z " fill="#61C4DB" transform="translate(349,33)"/>
<path d="M0 0 C1.134375 0.020625 2.26875 0.04125 3.4375 0.0625 C3.7675 1.0525 4.0975 2.0425 4.4375 3.0625 C1.0625 3.1875 1.0625 3.1875 -2.5625 3.0625 C-3.2225 2.4025 -3.8825 1.7425 -4.5625 1.0625 C-3.5625 0.0625 -3.5625 0.0625 0 0 Z " fill="#4085A1" transform="translate(363.5625,474.9375)"/>
<path d="M0 0 C3.63 0 7.26 0 11 0 C11.33 0.66 11.66 1.32 12 2 C9.69 2.33 7.38 2.66 5 3 C5 2.34 5 1.68 5 1 C3.35 1 1.7 1 0 1 C0 0.67 0 0.34 0 0 Z " fill="#2B91B7" transform="translate(106,426)"/>
<path d="M0 0 C2.875 -0.1875 2.875 -0.1875 6 0 C6.66 0.99 7.32 1.98 8 3 C6.35 3.33 4.7 3.66 3 4 C2.01 2.68 1.02 1.36 0 0 Z " fill="#0681C2" transform="translate(352,372)"/>
<path d="M0 0 C0.33 0 0.66 0 1 0 C1 1.65 1 3.3 1 5 C0.01 5.495 0.01 5.495 -1 6 C0.32 6.33 1.64 6.66 3 7 C0.69 7.33 -1.62 7.66 -4 8 C-2.87548273 5.0280615 -1.77706209 2.66559313 0 0 Z " fill="#83C5D4" transform="translate(228,329)"/>
<path d="M0 0 C0.98120464 3.05263664 0.98120464 4.94736336 0 8 C-1.65 8.33 -3.3 8.66 -5 9 C-3.50163895 5.88801935 -1.80066242 2.9465385 0 0 Z " fill="#5DC9DE" transform="translate(252,296)"/>
<path d="M0 0 C0.66 0.33 1.32 0.66 2 1 C-1.625 6.875 -1.625 6.875 -5 8 C-5.3125 5.6875 -5.3125 5.6875 -5 3 C-2.625 1.125 -2.625 1.125 0 0 Z " fill="#08B1D9" transform="translate(181,248)"/>
<path d="M0 0 C0.66 0 1.32 0 2 0 C0.33248852 3.94139078 -2.22710649 6.7892812 -5 10 C-5.8125 8.3125 -5.8125 8.3125 -6 6 C-3.625 3.3125 -3.625 3.3125 -1 1 C-0.67 0.67 -0.34 0.34 0 0 Z " fill="#4CBAD2" transform="translate(335,141)"/>
<path d="M0 0 C0.33 0.66 0.66 1.32 1 2 C0.34 2 -0.32 2 -1 2 C-1.33 2.99 -1.66 3.98 -2 5 C-2.66 5 -3.32 5 -4 5 C-4 5.66 -4 6.32 -4 7 C-5.32 6.67 -6.64 6.34 -8 6 C-2.25 1.125 -2.25 1.125 0 0 Z " fill="#2CB3D2" transform="translate(285,95)"/>
<path d="M0 0 C0.66 0 1.32 0 2 0 C1.56179109 4.55737263 1.14958831 7.57653445 -2 11 C-1.125 3.375 -1.125 3.375 0 0 Z " fill="#37B0D1" transform="translate(339,62)"/>
<path d="M0 0 C0.61875 0.28875 1.2375 0.5775 1.875 0.875 C2.205 1.865 2.535 2.855 2.875 3.875 C0.235 3.545 -2.405 3.215 -5.125 2.875 C-2.69803371 -0.15870787 -2.69803371 -0.15870787 0 0 Z " fill="#70A3AE" transform="translate(465.125,468.125)"/>
<path d="M0 0 C2.97 0.33 5.94 0.66 9 1 C7 3 7 3 5.0546875 3.1953125 C3.03645833 3.13020833 1.01822917 3.06510417 -1 3 C-0.67 2.01 -0.34 1.02 0 0 Z " fill="#0483C5" transform="translate(379,446)"/>
<path d="M0 0 C-3.82517513 2.39073445 -7.59665524 2.55966552 -12 3 C-12 2.34 -12 1.68 -12 1 C-8.0186217 -0.3271261 -4.14954773 -0.06915913 0 0 Z " fill="#529AB9" transform="translate(328,387)"/>
<path d="M0 0 C2.55803184 3.83704776 4.34505724 7.75712791 3.625 12.4375 C3.41875 12.953125 3.2125 13.46875 3 14 C3 13.34 3 12.68 3 12 C2.34 12 1.68 12 1 12 C0.67 8.04 0.34 4.08 0 0 Z " fill="#73C2D5" transform="translate(343,320)"/>
<path d="M0 0 C0.80824219 0.10183594 1.61648438 0.20367187 2.44921875 0.30859375 C3.06410156 0.39238281 3.67898438 0.47617187 4.3125 0.5625 C4.3125 0.8925 4.3125 1.2225 4.3125 1.5625 C-1.6275 2.0575 -1.6275 2.0575 -7.6875 2.5625 C-7.6875 1.9025 -7.6875 1.2425 -7.6875 0.5625 C-4.59271121 -0.46909626 -3.16118607 -0.41232862 0 0 Z " fill="#55C1DB" transform="translate(255.6875,328.4375)"/>
<path d="M0 0 C0 1.65 0 3.3 0 5 C-1.32 5.33 -2.64 5.66 -4 6 C-3.67 5.01 -3.34 4.02 -3 3 C-3.99 2.34 -4.98 1.68 -6 1 C-4 0 -4 0 0 0 Z " fill="#4EC1DE" transform="translate(257,290)"/>
<path d="M0 0 C0 3.62453269 -0.92469613 5.07920195 -3 8 C-3.99 8.33 -4.98 8.66 -6 9 C-5.52797514 4.75177626 -3.03344482 2.80010291 0 0 Z " fill="#5EC7D9" transform="translate(139,283)"/>
<path d="M0 0 C0.99 0 1.98 0 3 0 C1.515 5.445 1.515 5.445 0 11 C-0.33 11 -0.66 11 -1 11 C-0.67 7.37 -0.34 3.74 0 0 Z " fill="#54C1D5" transform="translate(276,229)"/>
<path d="M0 0 C0 0.99 0 1.98 0 3 C-2.96687001 4.64826111 -5.65626525 5.44271087 -9 6 C-8.34 5.67 -7.68 5.34 -7 5 C-7 4.34 -7 3.68 -7 3 C-4.69 2.01 -2.38 1.02 0 0 Z " fill="#47BBD6" transform="translate(239,199)"/>
<path d="M0 0 C0.33 0.66 0.66 1.32 1 2 C0.67 2.66 0.34 3.32 0 4 C-0.99 4 -1.98 4 -3 4 C-3.33 4.99 -3.66 5.98 -4 7 C-5.65 7.33 -7.3 7.66 -9 8 C-6.14723863 5.06799526 -3.34920216 2.35684596 0 0 Z " fill="#5ABBD8" transform="translate(257,183)"/>
<path d="M0 0 C2.31 0 4.62 0 7 0 C7 0.33 7 0.66 7 1 C5.35 1 3.7 1 2 1 C2 1.99 2 2.98 2 4 C-0.31 4 -2.62 4 -5 4 C-4.0409375 3.8453125 -4.0409375 3.8453125 -3.0625 3.6875 C-2.381875 3.460625 -1.70125 3.23375 -1 3 C-0.67 2.01 -0.34 1.02 0 0 Z " fill="#0F7BAF" transform="translate(413,454)"/>
<path d="M0 0 C4.05606165 0.46800711 7.46588679 0.87953208 11 3 C8.69 3.33 6.38 3.66 4 4 C4 3.34 4 2.68 4 2 C2.68 1.34 1.36 0.68 0 0 Z " fill="#4B9CB7" transform="translate(386,445)"/>
<path d="M0 0 C0.33 0.99 0.66 1.98 1 3 C-0.25 4.5625 -0.25 4.5625 -2 6 C-4.1875 5.6875 -4.1875 5.6875 -6 5 C-4.02 3.35 -2.04 1.7 0 0 Z " fill="#63C1DB" transform="translate(205,225)"/>
<path d="M0 0 C0.66 0 1.32 0 2 0 C1.75 2.375 1.75 2.375 1 5 C-1.0625 6.3125 -1.0625 6.3125 -3 7 C-2.38722388 4.03824877 -1.74627478 2.61941217 0 0 Z " fill="#3BB1D0" transform="translate(306,223)"/>
<path d="M0 0 C2.64 0.33 5.28 0.66 8 1 C8 1.66 8 2.32 8 3 C5.36 3 2.72 3 0 3 C0 2.01 0 1.02 0 0 Z " fill="#0582B9" transform="translate(417,456)"/>
<path d="M0 0 C0.66 0.33 1.32 0.66 2 1 C0.02 3.31 -1.96 5.62 -4 8 C-4.99 7.67 -5.98 7.34 -7 7 C-4.69 4.69 -2.38 2.38 0 0 Z " fill="#74CBD9" transform="translate(157,266)"/>
<path d="M0 0 C0.8125 1.6875 0.8125 1.6875 1 4 C-1.4375 6.75 -1.4375 6.75 -4 9 C-4 5.00095031 -2.27413033 3.19799578 0 0 Z " fill="#5BC4DB" transform="translate(315,210)"/>
<path d="M0 0 C0.33 0.66 0.66 1.32 1 2 C-0.75 4.0625 -0.75 4.0625 -3 6 C-4.32 5.67 -5.64 5.34 -7 5 C-4.69 3.35 -2.38 1.7 0 0 Z " fill="#55BCD9" transform="translate(281,165)"/>
<path d="M0 0 C2.125 0.9375 2.125 0.9375 4 2 C4 2.99 4 3.98 4 5 C3.01 5.66 2.02 6.32 1 7 C0.814375 6.071875 0.814375 6.071875 0.625 5.125 C0.12802644 2.80879168 0.12802644 2.80879168 -2 1 C-1.34 0.67 -0.68 0.34 0 0 Z " fill="#5BC0DB" transform="translate(347,122)"/>
<path d="M0 0 C1.32 0.33 2.64 0.66 4 1 C3.34 2.98 2.68 4.96 2 7 C1.67 6.01 1.34 5.02 1 4 C0.01 3.67 -0.98 3.34 -2 3 C-1.34 2.01 -0.68 1.02 0 0 Z " fill="#7BC0CF" transform="translate(352,15)"/>
<path d="M0 0 C1.65 0 3.3 0 5 0 C5 1.32 5 2.64 5 4 C5.66 4 6.32 4 7 4 C6.67 4.66 6.34 5.32 6 6 C3.97945196 4.35830472 1.97956942 2.69088222 0 1 C0 0.67 0 0.34 0 0 Z " fill="#368FAC" transform="translate(21,426)"/>
<path d="M0 0 C2.97 0.495 2.97 0.495 6 1 C6 1.33 6 1.66 6 2 C4.35 2 2.7 2 1 2 C1.33 3.32 1.66 4.64 2 6 C1.01 5.34 0.02 4.68 -1 4 C-0.67 2.68 -0.34 1.36 0 0 Z " fill="#63A1B7" transform="translate(16,419)"/>
<path d="M0 0 C0.99 0.33 1.98 0.66 3 1 C-0.465 3.97 -0.465 3.97 -4 7 C-4 6.01 -4 5.02 -4 4 C-3.34 4 -2.68 4 -2 4 C-1.34 2.68 -0.68 1.36 0 0 Z " fill="#0DB0DD" transform="translate(337,184)"/>
<path d="M0 0 C0.66 0.33 1.32 0.66 2 1 C1.34 3.64 0.68 6.28 0 9 C-2 7 -2 7 -2.25 4.5 C-2 2 -2 2 0 0 Z " fill="#24A9CB" transform="translate(349,166)"/>
<path d="M0 0 C1.32 0 2.64 0 4 0 C4 0.99 4 1.98 4 3 C2.1875 4.0625 2.1875 4.0625 0 5 C-0.99 4.67 -1.98 4.34 -3 4 C-2.34 4 -1.68 4 -1 4 C-0.67 2.68 -0.34 1.36 0 0 Z " fill="#0FACDF" transform="translate(282,165)"/>
<path d="M0 0 C0.99 0 1.98 0 3 0 C1.70700306 2.88437779 0.34058637 4.87219421 -2 7 C-1.125 1.125 -1.125 1.125 0 0 Z " fill="#0AAFDE" transform="translate(333,139)"/>
<path d="M0 0 C1.125 3.75 1.125 3.75 0 6 C-2.0625 6.625 -2.0625 6.625 -4 7 C-3.43628586 3.73045798 -2.50037734 2.17424117 0 0 Z " fill="#3EB8D1" transform="translate(294,82)"/>
<path d="M0 0 C1 3 1 3 0 6 C-1.65 6.33 -3.3 6.66 -5 7 C-5 6.34 -5 5.68 -5 5 C-4.34 5 -3.68 5 -3 5 C-2.5359375 4.0409375 -2.5359375 4.0409375 -2.0625 3.0625 C-1 1 -1 1 0 0 Z " fill="#57C5DA" transform="translate(349,19)"/>
<path d="M0 0 C1.65 0 3.3 0 5 0 C5.33 0.66 5.66 1.32 6 2 C5.34 2 4.68 2 4 2 C4 2.66 4 3.32 4 4 C3.01 4 2.02 4 1 4 C0.67 2.68 0.34 1.36 0 0 Z " fill="#137EA9" transform="translate(17,421)"/>
<path d="M0 0 C0.33 1.32 0.66 2.64 1 4 C-0.32 4.33 -1.64 4.66 -3 5 C-3 5.66 -3 6.32 -3 7 C-3.66 6.67 -4.32 6.34 -5 6 C-3.35 4.02 -1.7 2.04 0 0 Z " fill="#52C1D5" transform="translate(271,108)"/>
</svg>
